<svg xmlns="http://www.w3.org/2000/svg" width="96" height="96" viewBox="0 0 96 96">
  <g id="그룹_13850" data-name="그룹 13850" transform="translate(-506.96 -78.877)">
    <g id="그룹_13685" data-name="그룹 13685" transform="translate(506.96 78.877)">
      <g id="그룹_13684" data-name="그룹 13684" transform="translate(0)">
        <path id="패스_27871" data-name="패스 27871" d="M573.636,88.753a47.849,47.849,0,0,1,13.311,34.022l-18.833-.329-29.16-.51,21.072-20.162,13.609-13.022" transform="translate(-490.955 -73.937)" fill="#ffb000"/>
        <path id="패스_27872" data-name="패스 27872" d="M539.936,78.884a47.853,47.853,0,0,1,33.7,14.806l-13.609,13.022-21.072,20.162.6-29.158.386-18.831" transform="translate(-490.955 -78.874)" fill="#ffd400"/>
        <path id="패스_27873" data-name="패스 27873" d="M516.768,92.293a47.848,47.848,0,0,1,34.123-13.409l.144,0-.386,18.831-.6,29.158-20.225-21.012L516.768,92.293" transform="translate(-502.054 -78.877)" fill="#ffb000"/>
        <path id="패스_27874" data-name="패스 27874" d="M506.965,121.576v-.01A47.842,47.842,0,0,1,521.672,87.82l13.061,13.571L554.957,122.4l-29.16-.5-18.832-.324" transform="translate(-506.958 -74.404)" fill="#ffd400"/>
        <path id="패스_27875" data-name="패스 27875" d="M520.474,144.535a47.848,47.848,0,0,1-13.507-34.214l18.832.324,29.16.5-20.954,20.286-13.532,13.1" transform="translate(-506.96 -63.148)" fill="#ffb000"/>
        <path id="패스_27876" data-name="패스 27876" d="M549.777,158.867l-.162,0a47.848,47.848,0,0,1-33.647-14.6l13.532-13.1,20.954-20.286-.411,29.161-.266,18.834" transform="translate(-502.454 -62.872)" fill="#ffd400"/>
        <path id="패스_27877" data-name="패스 27877" d="M572.67,145.259A47.855,47.855,0,0,1,538.5,158.867l.266-18.834.411-29.161,20.348,20.894,13.142,13.493" transform="translate(-491.181 -62.872)" fill="#ffb000"/>
        <path id="패스_27878" data-name="패스 27878" d="M568.115,111.382l18.833.329a47.855,47.855,0,0,1-14.5,33.548L559.3,131.766l-20.347-20.894,29.16.51" transform="translate(-490.955 -62.872)" fill="#ffd400"/>
      </g>
      <path id="패스_27879" data-name="패스 27879" d="M514.837,111.04c1.425-8.331,6.983-15.9,14.171-20.327a26.9,26.9,0,0,1,7.753-3.3,2.012,2.012,0,0,1,1.5,3.691,68.01,68.01,0,0,0-6.089,4.186,46.052,46.052,0,0,0-9.829,10.58,64.049,64.049,0,0,0-3.731,6.428,2.017,2.017,0,0,1-3.77-1.256Z" transform="translate(-503.038 -74.637)" fill="#fff" opacity="0.7"/>
    </g>
    <path id="패스_27880" data-name="패스 27880" d="M532.806,97.824h23.816q3.4,1.116,3.4,8.187v11.907q0,7.071-3.4,8.187H542.8v10.207q-.16,2.019-1.594,2.339H531q-1.434-.32-1.595-2.339v-30.3Q529.4,98.94,532.806,97.824Zm9.994,11.588v6.8h2.765q1.168-.106,1.169-1.7v-5.1Z" transform="translate(11.227 9.478)" fill="#fff" opacity="0.7"/>
  </g>
</svg>
