<svg xmlns="http://www.w3.org/2000/svg" width="96.003" height="96.004" viewBox="0 0 96.003 96.004">
  <g id="그룹_13829" data-name="그룹 13829" transform="translate(-6989.998 -3398.967)">
    <g id="그룹_13639" data-name="그룹 13639" transform="translate(6989.998 3398.967)">
      <path id="패스_27788" data-name="패스 27788" d="M316.315,411.822a47.846,47.846,0,0,1,13.311,34.024l-18.833-.329-29.161-.509L302.7,424.845l13.611-13.023" transform="translate(-233.629 -397.007)" fill="#a7ea6b"/>
      <path id="패스_27789" data-name="패스 27789" d="M282.612,401.954a47.853,47.853,0,0,1,33.7,14.8L302.7,429.781l-21.073,20.164.6-29.16.384-18.832" transform="translate(-233.629 -401.944)" fill="#22c11a"/>
      <path id="패스_27790" data-name="패스 27790" d="M259.445,415.364a47.845,47.845,0,0,1,34.124-13.41l.143,0-.384,18.832-.6,29.16-20.224-21.015-13.062-13.57" transform="translate(-244.729 -401.947)" fill="#a7ea6b"/>
      <path id="패스_27791" data-name="패스 27791" d="M249.641,444.647v-.009A47.849,47.849,0,0,1,264.35,410.89l13.062,13.57,20.224,21.015-29.161-.5-18.833-.326" transform="translate(-249.634 -397.473)" fill="#22c11a"/>
      <path id="패스_27792" data-name="패스 27792" d="M263.152,467.607a47.854,47.854,0,0,1-13.509-34.217l18.833.326,29.161.5-20.953,20.287-13.533,13.1" transform="translate(-249.636 -386.216)" fill="#a7ea6b"/>
      <path id="패스_27793" data-name="패스 27793" d="M292.456,481.939l-.162,0a47.85,47.85,0,0,1-33.648-14.605l13.533-13.1,20.953-20.287L292.72,463.1l-.264,18.835" transform="translate(-245.129 -385.94)" fill="#22c11a"/>
      <path id="패스_27794" data-name="패스 27794" d="M315.347,468.33a47.852,47.852,0,0,1-34.166,13.609l.264-18.835.411-29.163,20.35,20.893,13.141,13.5" transform="translate(-233.855 -385.94)" fill="#a7ea6b"/>
      <path id="패스_27795" data-name="패스 27795" d="M310.792,434.451l18.833.329a47.85,47.85,0,0,1-14.5,33.551l-13.141-13.5-20.35-20.893,29.161.509" transform="translate(-233.629 -385.94)" fill="#22c11a"/>
    </g>
    <path id="패스_27796" data-name="패스 27796" d="M257.513,434.11c1.427-8.331,6.985-15.9,14.173-20.326a26.861,26.861,0,0,1,7.752-3.3,2.011,2.011,0,0,1,1.5,3.689,68.069,68.069,0,0,0-6.09,4.186,46.057,46.057,0,0,0-9.83,10.582,63.774,63.774,0,0,0-3.733,6.429,2.018,2.018,0,0,1-3.77-1.257Z" transform="translate(6744.285 3001.261)" fill="#fff" opacity="0.7"/>
  </g>
</svg>
