<svg xmlns="http://www.w3.org/2000/svg" width="96" height="96" viewBox="0 0 96 96">
  <g id="그룹_13803" data-name="그룹 13803" transform="translate(-109.283 -466.243)">
    <g id="그룹_13803-2" data-name="그룹 13803" transform="translate(109.283 466.243)">
      <path id="패스_28093" data-name="패스 28093" d="M142.259,466.25a47.849,47.849,0,0,1,33.7,14.806L162.35,494.078,141.278,514.24l.6-29.157.384-18.832" transform="translate(-93.278 -466.24)" fill="#ccc"/>
      <path id="패스_28094" data-name="패스 28094" d="M109.288,508.943v-.011a47.857,47.857,0,0,1,14.707-33.746l13.063,13.571,20.223,21.012-29.16-.5-18.832-.324" transform="translate(-109.281 -461.769)" fill="#ccc"/>
      <path id="패스_28095" data-name="패스 28095" d="M152.1,546.233l-.161,0a47.848,47.848,0,0,1-33.647-14.6l13.532-13.1,20.952-20.286-.411,29.162-.266,18.834" transform="translate(-104.777 -450.238)" fill="#ccc"/>
      <path id="패스_28096" data-name="패스 28096" d="M170.438,498.748l18.832.329a47.841,47.841,0,0,1-14.5,33.548l-13.141-13.493-20.349-20.894,29.16.51" transform="translate(-93.278 -450.238)" fill="#ccc"/>
      <path id="패스_28097" data-name="패스 28097" d="M175.959,476.119a47.839,47.839,0,0,1,13.312,34.022l-18.832-.329-29.16-.51,21.072-20.162,13.609-13.022" transform="translate(-93.278 -461.303)" fill="#ccc"/>
      <path id="패스_28098" data-name="패스 28098" d="M142.259,466.25a47.849,47.849,0,0,1,33.7,14.806L162.35,494.078,141.278,514.24l.6-29.157.384-18.832" transform="translate(-93.278 -466.24)" fill="#fff" opacity="0.4" style="mix-blend-mode: overlay;isolation: isolate"/>
      <path id="패스_28099" data-name="패스 28099" d="M119.091,479.66a47.855,47.855,0,0,1,34.124-13.409l.143,0-.384,18.832-.6,29.157-20.223-21.012L119.091,479.66" transform="translate(-104.377 -466.243)" fill="#ccc"/>
      <path id="패스_28100" data-name="패스 28100" d="M109.288,508.943v-.011a47.857,47.857,0,0,1,14.707-33.746l13.063,13.571,20.223,21.012-29.16-.5-18.832-.324" transform="translate(-109.281 -461.769)" fill="#fff" opacity="0.4" style="mix-blend-mode: overlay;isolation: isolate"/>
      <path id="패스_28101" data-name="패스 28101" d="M122.8,531.9a47.849,47.849,0,0,1-13.508-34.214l18.832.324,29.16.5L136.331,518.8,122.8,531.9" transform="translate(-109.283 -450.514)" fill="#ccc"/>
      <path id="패스_28102" data-name="패스 28102" d="M152.1,546.233l-.161,0a47.848,47.848,0,0,1-33.647-14.6l13.532-13.1,20.952-20.286-.411,29.162-.266,18.834" transform="translate(-104.777 -450.238)" fill="#fff" opacity="0.4" style="mix-blend-mode: overlay;isolation: isolate"/>
      <path id="패스_28103" data-name="패스 28103" d="M174.993,532.625a47.851,47.851,0,0,1-34.166,13.609l.266-18.834.411-29.162,20.349,20.894,13.141,13.493" transform="translate(-93.504 -450.238)" fill="#ccc"/>
      <path id="패스_28104" data-name="패스 28104" d="M170.438,498.748l18.832.329a47.841,47.841,0,0,1-14.5,33.548l-13.141-13.493-20.349-20.894,29.16.51" transform="translate(-93.278 -450.238)" fill="#fff" opacity="0.4" style="mix-blend-mode: overlay;isolation: isolate"/>
    </g>
    <path id="패스_28105" data-name="패스 28105" d="M117.16,498.406c1.427-8.331,6.985-15.9,14.171-20.327a26.909,26.909,0,0,1,7.753-3.3,2.012,2.012,0,0,1,1.5,3.691,67.738,67.738,0,0,0-6.088,4.186,46.014,46.014,0,0,0-9.83,10.58,63.944,63.944,0,0,0-3.733,6.429,2.017,2.017,0,0,1-3.77-1.256Z" transform="translate(3.922 4.24)" fill="#fff" opacity="0.7"/>
  </g>
</svg>
