<svg xmlns="http://www.w3.org/2000/svg" width="24" height="24" viewBox="0 0 24 24">
  <g id="그룹_13748" data-name="그룹 13748" transform="translate(-24 -348)">
    <rect id="사각형_184" data-name="사각형 184" width="24" height="24" transform="translate(24 348)" fill="none" opacity="0"/>
    <g id="그룹_13746" data-name="그룹 13746" transform="translate(24 304.478)">
      <g id="그룹_13745" data-name="그룹 13745" transform="translate(0 45.663)">
        <g id="그룹_13740" data-name="그룹 13740" transform="translate(0 0)">
          <g id="그룹_13739" data-name="그룹 13739">
            <path id="패스_28072" data-name="패스 28072" d="M21.147,53.755l-.52-.484a12.7,12.7,0,0,0-17.253,0l-.52.484L0,50.634l.513-.476a16.926,16.926,0,0,1,22.975,0l.513.476Z" transform="translate(0 -45.663)"/>
          </g>
        </g>
        <g id="그룹_13742" data-name="그룹 13742" transform="translate(4.755 7.06)">
          <g id="그룹_13741" data-name="그룹 13741">
            <path id="패스_28073" data-name="패스 28073" d="M113.075,202.517l-.521-.493a5.7,5.7,0,0,0-7.738,0l-.521.493-2.855-3.124.508-.476a9.924,9.924,0,0,1,13.474,0l.508.476Z" transform="translate(-101.44 -196.28)"/>
          </g>
        </g>
        <g id="그룹_13744" data-name="그룹 13744" transform="translate(9.182 14.083)">
          <g id="그룹_13743" data-name="그룹 13743">
            <path id="패스_28074" data-name="패스 28074" d="M198.7,351.739a2.818,2.818,0,1,1,2.818-2.818A2.821,2.821,0,0,1,198.7,351.739Z" transform="translate(-195.883 -346.103)"/>
          </g>
        </g>
      </g>
    </g>
  </g>
</svg>
