<svg xmlns="http://www.w3.org/2000/svg" xmlns:xlink="http://www.w3.org/1999/xlink" width="785" height="800" viewBox="0 0 785 800">
  <defs>
    <clipPath id="clip-path">
      <rect id="사각형_33005" data-name="사각형 33005" width="785" height="800" rx="16" transform="translate(448 232)" fill="#f2e7fc"/>
    </clipPath>
    <linearGradient id="linear-gradient" x1="0.197" y1="0.163" x2="0.959" y2="1.01" gradientUnits="objectBoundingBox">
      <stop offset="0" stop-color="#9d4fe8"/>
      <stop offset="0.686" stop-color="#df1991"/>
      <stop offset="1" stop-color="#ff0068"/>
    </linearGradient>
    <linearGradient id="linear-gradient-2" x1="-0.459" y1="-0.747" x2="1.984" y2="2.69" xlink:href="#linear-gradient"/>
  </defs>
  <g id="마스크_그룹_43" data-name="마스크 그룹 43" transform="translate(-448 -232)" clip-path="url(#clip-path)">
    <path id="패스_28054" data-name="패스 28054" d="M322.981,901.285C370,780.858,474.07,883.141,567.672,828.016S654.508,651.43,829.781,654.773s161.109-192.47,344.9-95.482c224.235,145.589,124.371,444.219,124.371,444.219L501.329,1166.4S275.958,1021.713,322.981,901.285Z" fill="#9d4fe8" opacity="0.302"/>
    <path id="패스_28082" data-name="패스 28082" d="M322.981,901.285C370,780.858,474.07,883.141,567.672,828.016S654.508,651.43,829.781,654.773s161.109-192.47,344.9-95.482c224.235,145.589,124.371,444.219,124.371,444.219L501.329,1166.4S275.958,1021.713,322.981,901.285Z" transform="translate(60)" fill="#9d4fe8"/>
    <g id="그룹_13721" data-name="그룹 13721" transform="translate(-382.825 98.242)">
      <g id="그룹_13723" data-name="그룹 13723" transform="translate(862.307 493.758)">
        <path id="패스_28034" data-name="패스 28034" d="M1366.375,673.48l-8.042,4.67,68.738,39.684v0l-68.738-39.688-10.022,5.827-8.094-4.674,10.022-5.823,8.042-4.674-214.251-123.7-8.042,4.67-10.022,5.823-8.094-4.67,10.027-5.823-72.787-42.025L1127.9,545.11l8.041-4.674-80.851-46.678L994.84,528.772c20.089,11.6,20.168,30.406.207,42s-52.4,11.6-72.493,0l-60.247,35.014,80.846,46.678,8.011-4.657,10.053-5.841,8.094,4.674-10.053,5.841-8.011,4.657,214.251,123.7,8.011-4.652,10.053-5.845,8.09,4.674-10.048,5.841-8.015,4.657,76.806,44.341,60.472-35.142c-16.171-11.664-15.035-28.733,3.556-39.538,18.623-10.823,48.086-11.536,68.281-2.21l60.472-35.141ZM943.312,584.93q-2.568-.376-5.083-.88,2.515.5,5.083.88a107.544,107.544,0,0,0,15.652,1.131A107.544,107.544,0,0,1,943.312,584.93Zm76.066-26a25.456,25.456,0,0,0,.978-2.615,25.456,25.456,0,0,1-.978,2.615c-2.676,6.056-8.085,11.783-16.242,16.523C1011.293,570.709,1016.7,564.983,1019.378,558.926Zm-18.741,69.513-8.094-4.674,31.325-18.2,8.094,4.674Zm85.882-59.288,8.094,4.674-31.325,18.2-8.094-4.674Zm77.246,123.422-37.232-21.5L1099.2,686.962c-3.908,1.915-7.438,2.3-10.555,1.153l-27.509-15.885c-2.029-1.818-1.369-3.86,1.954-6.118l81.133-47.149q18.928-11,31.079-7.447l64.182,37.056c4.089,4.692-.136,10.7-12.756,18.028l-31.88,18.53Q1175.913,696.13,1163.765,692.573Zm59.213,64.235-8.094-4.674,31.325-18.2,8.094,4.674Zm62.651-36.409-8.09-4.674,31.325-18.2,8.09,4.674Z" transform="translate(-862.307 -493.758)" fill="url(#linear-gradient)"/>
        <path id="패스_28035" data-name="패스 28035" d="M1086.717,558.234l-64.182-37.056q-12.161-3.533-31.079,7.447l-81.133,47.149c-3.323,2.258-3.984,4.3-1.954,6.118l27.509,15.885c3.116,1.149,6.646.762,10.555-1.153l27.333-15.885,37.232,21.5q12.122,3.559,31.083-7.443l31.88-18.53C1086.58,568.93,1090.806,562.926,1086.717,558.234Z" transform="translate(-709.54 -403.42)" fill="url(#linear-gradient-2)"/>
        <g id="그룹_13721-2" data-name="그룹 13721" transform="translate(197.679 116.898)" opacity="0.7" style="mix-blend-mode: overlay;isolation: isolate">
          <path id="패스_28036" data-name="패스 28036" d="M1086.717,558.233c4.089,4.692-.136,10.7-12.756,18.028l-31.885,18.526q-18.928,11.006-31.074,7.447l-37.236-21.5-27.333,15.885c-3.909,1.915-7.438,2.306-10.555,1.153l-27.509-15.885c-2.029-1.818-1.369-3.86,1.954-6.118l81.133-47.149q18.928-11,31.079-7.447Zm-71.339,10.594,13.654-7.932-10.594-6.118-18.2,10.581,7.447,4.3c2.275,1.087,4.851.827,7.7-.827" transform="translate(-907.219 -520.317)" fill="#fff"/>
        </g>
        <g id="그룹_13722" data-name="그룹 13722" transform="translate(16.105 9.327)" opacity="0.1" style="mix-blend-mode: overlay;isolation: isolate">
          <path id="패스_28037" data-name="패스 28037" d="M1368.753,737.268c-24.107-7.834-54.763-5.643-74.839,6.021s-23.755,29.433-10.176,43.386L1237.9,813.317l-68.738-39.688,10.048-5.841-8.063-4.657-10.053,5.841L946.813,645.259l10.053-5.841-8.094-4.67-10.053,5.841-72.752-42.008,44.921-26.105c24.45,9.749,58.2,8.341,79.834-4.234,21.607-12.557,23.935-32.109,7.051-46.26l44.921-26.105,72.757,42.008-10.053,5.841,8.094,4.67,10.049-5.841,214.278,123.717-10.049,5.841,8.064,4.657,10.053-5.845,68.738,39.688ZM1182.4,677.936l31.885-18.53q18.929-11,12.729-18.042l-64.156-37.039q-12.161-3.578-31.11,7.43l-81.106,47.136q-4.931,3.406-1.98,6.131l27.514,15.885q4.754,1.73,10.581-1.171l27.307-15.867,37.232,21.5q12.208,3.559,31.1-7.43M1050.842,584.8l31.325-18.2-8.094-4.67-31.326,18.2,8.094,4.67m-62.651,36.409,31.325-18.2-8.094-4.67-31.325,18.2,8.094,4.67m284.993,91.96,31.325-18.2-8.064-4.652-31.325,18.2,8.064,4.652m-62.651,36.409,31.325-18.2-8.064-4.652-31.325,18.2,8.064,4.657" transform="translate(-865.966 -495.877)" fill="#fff"/>
        </g>
      </g>
      <path id="패스_28038" data-name="패스 28038" d="M1470.712,674.78l-8.042,4.674,68.738,39.684h0l-68.738-39.684-10.022,5.823-8.094-4.67,10.026-5.827,8.037-4.67L1248.37,546.41l-8.042,4.674-10.022,5.823-8.094-4.674,10.022-5.823-72.783-42.021,72.783,42.021,8.042-4.674-80.851-46.678-60.248,35.014c20.093,11.6,20.167,30.405.207,42.008s-52.4,11.6-72.493,0l-60.248,35.014,80.847,46.678,8.015-4.657,10.049-5.841,8.094,4.674-10.048,5.841-8.015,4.657,214.251,123.7,8.011-4.657,10.053-5.841,8.094,4.674-10.053,5.841-8.011,4.657,76.8,44.341,60.472-35.141c-16.172-11.668-15.036-28.737,3.56-39.543,18.623-10.819,48.086-11.536,68.276-2.205l60.472-35.146Zm-423.063-88.545c-1.708-.251-3.407-.546-5.079-.885,1.672.339,3.372.634,5.079.885a106.923,106.923,0,0,0,15.652,1.127A106.923,106.923,0,0,1,1047.649,586.235Zm76.067-26.008a23.165,23.165,0,0,0,.977-2.61,23.165,23.165,0,0,1-.977,2.61c-2.672,6.056-8.086,11.787-16.238,16.528C1115.63,572.014,1121.044,566.283,1123.716,560.226Zm-18.742,69.517-8.094-4.674,31.325-18.2,8.094,4.674Zm85.886-59.288,8.09,4.674-31.325,18.2-8.09-4.674Zm77.246,123.422-37.237-21.5-27.333,15.885c-3.908,1.915-7.438,2.3-10.55,1.149l-27.514-15.881c-2.025-1.818-1.365-3.865,1.954-6.118l81.133-47.149q18.929-11,31.079-7.447l64.187,37.056c4.084,4.688-.136,10.691-12.756,18.029l-31.884,18.526Q1280.257,697.43,1268.107,693.878Zm59.213,64.235-8.094-4.674,31.325-18.2,8.094,4.674Zm62.651-36.409-8.094-4.674,31.325-18.2,8.094,4.674Z" transform="translate(354.902 4.422)" fill="#ffb000"/>
      <path id="패스_28039" data-name="패스 28039" d="M1191.056,559.535l-64.187-37.056q-12.162-3.532-31.079,7.447l-81.133,47.149c-3.319,2.254-3.979,4.3-1.954,6.118l27.514,15.881c3.112,1.153,6.642.766,10.55-1.149L1078.1,582.04l37.236,21.5q12.121,3.552,31.079-7.447l31.884-18.526C1190.919,570.226,1195.14,564.223,1191.056,559.535Z" transform="translate(507.671 94.763)" fill="#ffb000"/>
      <g id="그룹_13724" data-name="그룹 13724" transform="translate(1337.651 508.811)" opacity="0.1" style="mix-blend-mode: overlay;isolation: isolate">
        <path id="패스_28040" data-name="패스 28040" d="M1473.09,738.569c-24.1-7.835-54.763-5.647-74.839,6.021s-23.755,29.433-10.176,43.386l-45.842,26.642L1273.5,774.93l10.048-5.841-8.064-4.657-10.048,5.841L1051.154,646.56l10.048-5.841-8.094-4.674-10.049,5.841-72.757-42,44.921-26.105c24.455,9.749,58.2,8.336,79.834-4.239,21.612-12.557,23.936-32.1,7.052-46.255l44.922-26.105,72.756,42-10.052,5.845,8.094,4.67,10.052-5.841L1442.16,667.569l-10.052,5.841,8.068,4.657,10.048-5.841,68.738,39.688ZM1286.74,679.237l31.884-18.53q18.929-11,12.725-18.042l-64.156-37.039q-12.162-3.578-31.106,7.43l-81.106,47.131q-4.939,3.407-1.981,6.136l27.509,15.885q4.761,1.723,10.581-1.171l27.307-15.868,37.233,21.5q12.207,3.552,31.11-7.43m-131.56-93.131,31.325-18.2-8.094-4.674-31.325,18.2,8.095,4.674m-62.651,36.409,31.325-18.2-8.094-4.674-31.325,18.2,8.094,4.674m285,91.96,31.325-18.2-8.068-4.657-31.325,18.2,8.068,4.657m-62.651,36.409,31.325-18.2-8.068-4.657-31.325,18.2,8.068,4.657" transform="translate(-970.303 -497.178)" fill="#fff"/>
      </g>
      <path id="패스_28041" data-name="패스 28041" d="M1368.96,733.908l-8.037,4.67,68.738,39.688h0l-68.738-39.688-10.027,5.828-8.09-4.674,10.022-5.823,8.042-4.674L1146.619,605.538l-8.042,4.67-10.022,5.823-8.095-4.67,10.022-5.823L1057.7,563.513l72.788,42.026,8.037-4.674-80.847-46.678L997.426,589.2c20.093,11.6,20.172,30.406.211,42s-52.4,11.6-72.493,0l-60.252,35.014L945.744,712.9l8.011-4.657,10.053-5.841,8.094,4.674-10.053,5.841-8.011,4.657,214.247,123.7,8.016-4.657,10.048-5.841,8.094,4.67-10.053,5.841-8.01,4.657,76.8,44.345,60.476-35.146c-16.176-11.664-15.036-28.733,3.556-39.538,18.623-10.823,48.086-11.536,68.276-2.21l60.476-35.142ZM945.9,645.359q-2.568-.376-5.084-.88,2.516.5,5.084.88a106.851,106.851,0,0,0,15.647,1.131A106.851,106.851,0,0,1,945.9,645.359Zm76.067-26a25.457,25.457,0,0,0,.977-2.614,25.457,25.457,0,0,1-.977,2.614c-2.676,6.056-8.086,11.787-16.242,16.523C1013.883,631.137,1019.293,625.411,1021.969,619.354Zm-18.741,69.513-8.095-4.674,31.325-18.2,8.095,4.674Zm85.881-59.284,8.094,4.67-31.325,18.2-8.095-4.67Zm77.246,123.422-37.232-21.5-27.333,15.885q-5.87,2.872-10.555,1.154l-27.514-15.885c-2.025-1.818-1.365-3.86,1.954-6.118l81.137-47.149q18.929-11,31.079-7.447L1242.074,709c4.089,4.692-.136,10.7-12.755,18.028l-31.885,18.53Q1178.506,756.558,1166.355,753.006Zm59.213,64.231-8.094-4.67,31.325-18.2,8.094,4.67Zm62.651-36.409-8.094-4.67,31.325-18.2,8.094,4.67Z" transform="translate(8.796 205.545)" fill="#ffb000"/>
      <path id="패스_28042" data-name="패스 28042" d="M1089.3,618.66,1025.122,581.6q-12.168-3.525-31.079,7.448L912.906,636.2c-3.319,2.258-3.979,4.3-1.954,6.118L938.466,658.2q4.674,1.729,10.555-1.153l27.333-15.885,37.232,21.5q12.122,3.552,31.079-7.447l31.885-18.53C1089.168,629.356,1093.394,623.352,1089.3,618.66Z" transform="translate(161.566 295.885)" fill="#ffb000"/>
      <g id="그룹_13725" data-name="그룹 13725" transform="translate(889.794 769.058)" opacity="0.1" style="mix-blend-mode: overlay;isolation: isolate">
        <path id="패스_28043" data-name="패스 28043" d="M1371.343,797.7c-24.107-7.839-54.768-5.647-74.839,6.017s-23.755,29.433-10.176,43.385l-45.846,26.642-68.738-39.688,10.053-5.841-8.068-4.652-10.049,5.841L949.4,705.687l10.048-5.841-8.09-4.67-10.053,5.841-72.756-42.008,44.926-26.1c24.45,9.754,58.2,8.341,79.83-4.234,21.612-12.557,23.94-32.109,7.051-46.255l44.926-26.11,72.752,42.008-10.049,5.841,8.094,4.674,10.049-5.845L1340.409,726.7l-10.048,5.841,8.064,4.657,10.053-5.841,68.738,39.684Zm-186.355-59.336,31.884-18.526q18.929-11.006,12.725-18.046l-64.156-37.039q-12.161-3.578-31.105,7.43l-81.106,47.135q-4.939,3.407-1.981,6.131l27.509,15.885q4.76,1.729,10.586-1.167l27.3-15.872,37.236,21.5q12.208,3.552,31.105-7.434m-131.556-93.131,31.325-18.2-8.094-4.674-31.325,18.2,8.095,4.67m-62.651,36.409,31.321-18.2-8.09-4.67-31.325,18.2,8.095,4.67m284.992,91.965,31.326-18.2-8.063-4.657-31.325,18.2,8.063,4.657m-62.651,36.4,31.325-18.2-8.063-4.657-31.325,18.2,8.063,4.652" transform="translate(-868.552 -556.305)" fill="#fff"/>
      </g>
      <g id="그룹_13726" data-name="그룹 13726" transform="translate(1519.228 616.38)" opacity="0.4" style="mix-blend-mode: overlay;isolation: isolate">
        <path id="패스_28044" data-name="패스 28044" d="M1191.056,559.535c4.085,4.688-.136,10.691-12.756,18.024l-31.884,18.53q-18.929,11-31.079,7.447l-37.236-21.5-27.334,15.885c-3.909,1.915-7.434,2.3-10.55,1.149L1012.7,583.193c-2.025-1.818-1.365-3.865,1.954-6.118l81.133-47.149q18.929-11,31.079-7.447Zm-71.339,10.594,13.649-7.932-10.594-6.118-18.2,10.577,7.447,4.3c2.271,1.087,4.851.827,7.7-.828" transform="translate(-1011.556 -521.617)" fill="#fff"/>
      </g>
      <g id="그룹_13727" data-name="그룹 13727" transform="translate(1071.371 876.629)" opacity="0.4" style="mix-blend-mode: overlay;isolation: isolate">
        <path id="패스_28045" data-name="패스 28045" d="M1089.3,618.66c4.089,4.692-.136,10.7-12.755,18.029l-31.885,18.53q-18.929,11-31.079,7.447l-37.232-21.5L949.021,657.05q-5.87,2.872-10.555,1.153l-27.514-15.885c-2.025-1.818-1.365-3.86,1.954-6.118l81.137-47.149q18.929-11,31.079-7.448Zm-71.339,10.6,13.653-7.936-10.594-6.118-18.2,10.582,7.448,4.3c2.276,1.087,4.85.827,7.7-.827" transform="translate(-909.805 -580.745)" fill="#fff"/>
      </g>
    </g>
  </g>
</svg>
