<svg xmlns="http://www.w3.org/2000/svg" xmlns:xlink="http://www.w3.org/1999/xlink" width="246.4" height="514" viewBox="0 0 246.4 514">
  <defs>
    <clipPath id="clip-path">
      <rect id="사각형_33033" data-name="사각형 33033" width="246.4" height="514" rx="16" transform="translate(4054 -727)" fill="none"/>
    </clipPath>
    <linearGradient id="linear-gradient" x1="0.5" y1="0.958" x2="0.5" gradientUnits="objectBoundingBox">
      <stop offset="0" stop-color="#29a4ff"/>
      <stop offset="1" stop-color="#2949ff"/>
    </linearGradient>
  </defs>
  <g id="그룹_13825" data-name="그룹 13825" transform="translate(-7287.4 -1447)">
    <g id="마스크_그룹_53" data-name="마스크 그룹 53" transform="translate(3233.4 2174)" clip-path="url(#clip-path)">
      <path id="패스_28091" data-name="패스 28091" d="M9414.582-260.6s22.812-36.726,80.88-16.153,50.68-19.351,101.385-21.578,64.134,46.551,64.134,46.551V-477.139h-246.4" transform="translate(-5360.581 -249.861)" fill="url(#linear-gradient)"/>
    </g>
    <g id="그룹_13780" data-name="그룹 13780" transform="translate(7335.4 1677.561)">
      <path id="패스_27895" data-name="패스 27895" d="M336.63-396.625a78.446,78.446,0,0,1,9.459-8.091,77.9,77.9,0,0,1,10.812-6.5,76.476,76.476,0,0,1,11.585-4.544A76.2,76.2,0,0,1,380.5-418.3a75.075,75.075,0,0,1,12.168-.547c4.121.143,7.979,4.45,11.131,12.13,3.552,8.676,6.219,21.624,7.349,37.809-12.4-11.9-25.428-20.9-37.278-26.421-16.15-7.5-30.117-8.5-37.24-1.3" transform="translate(-314.826 418.899)" fill="#29a4ff"/>
      <path id="패스_27896" data-name="패스 27896" d="M327.513-348.62c-.056-1.943-.188-4.534-.16-6.48.432-7.549.458-8,1.28-12.515,1.687-7.361,1.788-7.8,3.4-12.224,2.913-6.985,3.087-7.4,5.467-11.564,4.067-6.407,4.311-6.79,7.386-10.521,1.269-1.414,2.939-3.322,4.267-4.682,7.123-7.2,21.091-6.2,37.24,1.3,11.85,5.519,24.883,14.522,37.278,26.421a220.512,220.512,0,0,0-48.085,3.54c-21.032,3.961-38.2,10.8-45.04,18.96-2.23,2.664-3.2,5.274-3.033,7.767" transform="translate(-327.349 428.879)" fill="#2949ff"/>
      <path id="패스_27897" data-name="패스 27897" d="M350.51-317.949c-2.169-2.218-4.957-5.272-6.968-7.633-4.111-5.563-4.189-5.669-6-8.759-3.36-6.235-3.425-6.355-4.83-9.828-2.443-6.764-2.537-7.027-3.458-10.918-1.433-7.375-1.49-7.664-1.807-11.991l-.014-.19c-.167-2.493.8-5.1,3.033-7.767,6.837-8.162,24.008-15,45.04-18.96a220.512,220.512,0,0,1,48.085-3.54c-35.81,36.378-73.374,77.288-73.078,79.586" transform="translate(-327.266 447.527)" fill="#29a4ff"/>
      <path id="패스_27898" data-name="패스 27898" d="M386.571-297.24h-.014c-7.577-.554-7.722-.566-11.714-1.327-7.2-1.67-7.2-1.67-10.772-2.934-6.644-2.627-6.644-2.627-9.839-4.306-6.076-3.473-6.076-3.473-8.921-5.521-5.486-4.243-5.486-4.243-8-6.637l-.07-.068c2.194-5.512,44.747-50.818,73.078-79.586a255.036,255.036,0,0,1-1.337,48.188c-2.678,21.492-7.99,39.655-14.825,47.82-2.561,3.057-5.122,4.459-7.589,4.372" transform="translate(-313.999 447.612)" fill="#2949ff"/>
      <path id="패스_27899" data-name="패스 27899" d="M414.564-319.763c-5.509,5.206-5.841,5.516-9.755,8.392-6.249,4.154-6.623,4.4-10.817,6.5-6.8,3.028-7.21,3.209-11.585,4.546-7.316,1.882-7.6,1.955-12.017,2.537-7.525.658-7.819.684-12.151.547,2.467.087,5.028-1.316,7.589-4.372,6.834-8.164,12.146-26.327,14.825-47.82a255.036,255.036,0,0,0,1.337-48.188c12.449,11.841,22.275,24.68,28.728,36.655,9.125,16.963,11.442,32.2,4.6,40.363-.244.289-.5.571-.759.839" transform="translate(-285.667 447.612)" fill="#29a4ff"/>
      <path id="패스_27900" data-name="패스 27900" d="M422.236-377.85l.016.216c.068,2,.19,4.668.172,6.67a76.3,76.3,0,0,1-1.28,12.515,77.435,77.435,0,0,1-3.4,12.221,78.085,78.085,0,0,1-5.465,11.559,79.466,79.466,0,0,1-7.384,10.516c-1.193,1.318-2.735,3.12-3.975,4.389.263-.268.514-.55.759-.839,6.837-8.164,4.52-23.4-4.6-40.363-6.454-11.975-16.279-24.814-28.728-36.655,16.458.533,29.969,2.967,39.374,6.609,8.947,3.472,14.146,8.054,14.515,13.161" transform="translate(-272.026 447.612)" fill="#2949ff"/>
      <path id="패스_27901" data-name="패스 27901" d="M398.937-410.113l.176.167c4.856,4.957,4.856,4.957,7.039,7.7,4.076,5.512,4.156,5.615,6,8.759,3.238,5.991,3.364,6.226,4.83,9.828,2.324,6.4,2.462,6.776,3.458,10.915a74.652,74.652,0,0,1,1.793,11.777c-.369-5.108-5.568-9.689-14.515-13.161-9.4-3.642-22.916-6.076-39.374-6.609,10.8-11.077,19.1-19.324,24.335-24.236,3.832-3.595,6-5.385,6.254-5.143" transform="translate(-272.026 430.726)" fill="#29a4ff"/>
      <path id="패스_27902" data-name="패스 27902" d="M371.613-406.746c-3.153-7.68-7.011-11.987-11.132-12.13,7.161.51,7.441.529,11.714,1.327,6.912,1.6,7.044,1.626,10.774,2.932,6.581,2.6,6.581,2.6,9.839,4.309,6.059,3.463,6.059,3.463,8.921,5.521,2.408,1.863,5.542,4.45,7.821,6.47-.254-.242-2.422,1.548-6.254,5.143-5.234,4.913-13.54,13.159-24.335,24.236-1.13-16.185-3.8-29.133-7.349-37.809" transform="translate(-282.64 418.93)" fill="#2949ff"/>
      <path id="패스_27903" data-name="패스 27903" d="M383.141-387.6q-.62-4.849-1.426-9.325,1.392.078,2.779.174,1.462.1,2.9.223.631,3.348,1.146,6.907c.186,1.553-.2,2.215-1.346,2.286l-1.245-.092q-1.4-.1-2.805-.174M396.6-409.059q-7.189-1.195-15.44-1.781c-5.493-.381-11.08-.526-16.7-.453-3.139,1.092-3.982,3.752-3.113,9.811.818,5.119,1.572,10.664,2.248,16.6.994,8.752,1.748,17.769,2.274,26.8.409,2.6,1.4,3.108,2.469,3.432,4.823-.12,9.633-.08,14.385.132.991-.3,1.983-.806,2.239-3.39,0-5.1-.153-10.2-.465-15.25q1.4.078,2.784.174,8.62.6,16.15,1.861c1.851-.536,4.21-2.284,3.343-11.209a117.866,117.866,0,0,0-3.012-16.2c-2.38-8.43-6.087-10.187-7.166-10.525" transform="translate(-281.909 429.137)" fill="#fff" opacity="0.7" style="mix-blend-mode: color-dodge;isolation: isolate"/>
    </g>
  </g>
</svg>
