<svg xmlns="http://www.w3.org/2000/svg" xmlns:xlink="http://www.w3.org/1999/xlink" width="785" height="800" viewBox="0 0 785 800">
  <defs>
    <clipPath id="clip-path">
      <rect id="사각형_33006" data-name="사각형 33006" width="785" height="800" rx="16" transform="translate(1184 232)" fill="none"/>
    </clipPath>
  </defs>
  <g id="마스크_그룹_44" data-name="마스크 그룹 44" transform="translate(-1184 -232)" clip-path="url(#clip-path)">
    <path id="패스_28055" data-name="패스 28055" d="M10271.411-1627.7c-95.9-110.64,36.57-189.97,164.448-137.073s134.881-35.058,264.592,32.388,301.225,119.014,224.547,248.977c-23.693,40.158-38.5,64.677-224.547,93.9s-143.1,110.151-283.536,71.711c-65.877-18.032-66.978-44.91-124.113-71.711-145.467-61.029-128.079-140.472-88.118-157.066C10262.441-1573.683,10318.4-1573.491,10271.411-1627.7Z" transform="translate(-8969.91 2379.843)" fill="#0060c4" opacity="0.302"/>
    <path id="패스_28081" data-name="패스 28081" d="M10271.411-1627.7c-95.9-110.64,36.57-189.97,164.448-137.073s134.881-35.058,264.592,32.388,301.225,119.014,224.547,248.977c-23.693,40.158-38.5,64.677-224.547,93.9s-143.1,110.151-283.536,71.711c-65.877-18.032-66.978-44.91-124.113-71.711-145.467-61.029-128.079-140.472-88.118-157.066C10262.441-1573.683,10318.4-1573.491,10271.411-1627.7Z" transform="translate(-8909.91 2379.843)" fill="#0060c4" stroke="#707070" stroke-width="1"/>
    <g id="그룹_13728" data-name="그룹 13728" transform="translate(1496.008 522.962)">
      <path id="패스_28046" data-name="패스 28046" d="M625.171,898.152c-4.222-9.542-4.66-10.536-6.989-17.742-2.68-9.624-3.163-11.359-4.607-20.311a140.452,140.452,0,0,1-1.285-22.243,144.338,144.338,0,0,1,2.848-23.654,151.621,151.621,0,0,1,7.668-24.1c-8.531,19.951-.556,44.854,19.362,68.042,15.144,17.644,37.17,34.3,64.188,47.088-64.012,16.674-78.325-1.2-81.185-7.079" transform="translate(-612.283 -710.495)" fill="#7230e5"/>
      <path id="패스_28047" data-name="패스 28047" d="M677.268,878.114c-4.632-2.4-10.712-5.786-15.176-8.482-9.444-6.584-9.444-6.584-13.855-10.365-8.233-7.533-8.388-7.68-12.41-12.169-7.021-8.388-7.3-8.715-10.929-14.063-5.634-8.969-6.1-9.7-9.247-16.081l-.217-.446c8.83,15.749,38.422,18.331,81.185,7.079-9.82,22.783-16.023,38.855-18.5,47.416-1.265,4.366-1.555,6.78-.851,7.112" transform="translate(-602.544 -628.851)" fill="#b331eb"/>
      <path id="패스_28048" data-name="패스 28048" d="M721.408,880.912c-10.295,2.447-11.371,2.7-19.354,3.719-10.684.888-11.559.961-18.92.806-10.864-.679-11.514-.72-18.131-1.817-11.129-2.287-11.342-2.332-17.329-4.211-10.888-3.854-11.1-3.928-16.6-6.53l-.245-.114c-.7-.332-.413-2.746.851-7.112,2.475-8.56,8.679-24.633,18.5-47.416,12.173,25.185,26.2,43.463,39.932,53.795,11.011,8.294,21.821,11.453,31.3,8.879" transform="translate(-556.105 -623.502)" fill="#7230e5"/>
      <path id="패스_28049" data-name="패스 28049" d="M792.623,815.224l-.012.033c-2.066,4.337-4.849,10.119-7.173,14.325-5.54,8.892-10.32,16.572-21.167,27.419a143.749,143.749,0,0,1-18.278,15.062A140.371,140.371,0,0,1,726.5,883.029c-9.505,3.965-10.966,4.57-19.817,7.152l-.184.049c-9.476,2.574-20.287-.585-31.3-8.879-13.728-10.332-27.759-28.61-39.932-53.795,27.022,12.779,54.719,19.649,79.389,20.839,34.919,1.7,63.75-8.02,75.694-28.647a41.386,41.386,0,0,0,2.267-4.526" transform="translate(-541.2 -632.821)" fill="#b331eb"/>
      <path id="패스_28050" data-name="패스 28050" d="M789.98,788.679l.057.119c4.767,10.761,5.049,11.408,7.206,18.188,3.171,11.613,3.433,12.562,4.607,20.311,1.3,12.263,1.44,13.544,1.285,22.247-.843,12.59-.949,14.207-2.848,23.667-3.277,12.742-3.7,14.378-7.664,24.084a41.381,41.381,0,0,1-2.267,4.526c-11.944,20.626-40.775,30.345-75.694,28.647-24.669-1.191-52.367-8.061-79.389-20.839,25.991-7.12,52.735-18.564,76.647-32.035,33.843-19.055,61.978-42.19,73.922-62.817,6.2-10.712,7.336-19.518,4.137-26.1" transform="translate(-541.2 -714.892)" fill="#7230e5"/>
      <path id="패스_28051" data-name="패스 28051" d="M727.9,773.735l.286.135c10.516,5.413,10.516,5.413,15.418,8.6,9.468,6.6,9.468,6.6,13.855,10.365,8.487,7.779,8.487,7.779,12.407,12.165,7.349,8.806,7.488,8.973,10.929,14.063,6.117,9.788,6.359,10.168,9.19,15.958,3.2,6.58,2.066,15.385-4.137,26.1-11.944,20.627-40.079,43.762-73.922,62.817-23.912,13.47-50.656,24.915-76.647,32.034,9.677-22.857,21.412-48.774,33.307-73.836,16.825-35.471,33.962-69.208,45.906-89.835,7.652-13.213,12.087-19.178,13.409-18.56" transform="translate(-541.2 -761.23)" fill="#b331eb"/>
      <path id="패스_28052" data-name="패스 28052" d="M658.784,775.433l.471-.127c11.883-2.794,12.349-2.9,19.542-3.768,11.985-.966,12.214-.982,18.912-.806,11.69.748,11.915.761,18.131,1.817,11.322,2.336,11.535,2.381,17.324,4.21,4.955,1.755,11.486,4.313,16.314,6.391-1.322-.618-5.757,5.348-13.409,18.56-11.944,20.627-29.08,54.363-45.906,89.835-11.895,25.062-23.63,50.979-33.307,73.836-38.888-81.209-37.9-178.848,1.927-189.948" transform="translate(-562.784 -770.646)" fill="#7230e5"/>
      <path id="패스_28053" data-name="패스 28053" d="M636.779,914.676c-19.919-23.188-27.893-48.091-19.362-68.042,2.03-4.358,4.886-10.095,7.173-14.317,6.142-9.685,10.577-16.682,21.175-27.44,9.518-8.707,10.512-9.615,18.29-15.07,10.737-6.731,11.613-7.284,19.493-10.966,11.645-4.788,12.1-4.976,19.346-7.026-43.086,16.228-37.072,118.007-1.927,189.948-27.018-12.787-49.044-29.444-64.188-47.088" transform="translate(-606.893 -767.029)" fill="#b331eb"/>
    </g>
    <g id="그룹_13729" data-name="그룹 13729" transform="translate(1272.168 624.231) rotate(-8)">
      <g id="그룹_13718" data-name="그룹 13718" transform="translate(0 0)">
        <path id="패스_28024" data-name="패스 28024" d="M991.558,907.722c-60.852,25.2-104.256,95.521-96.919,157.06,3.132,26.266,15,46.659,32.3,59.466a147.327,147.327,0,0,1-14.832-12.783,130.627,130.627,0,0,1-18.152-22.752,130.749,130.749,0,0,1-19.056-54.019c-1.218-15.478-1.484-21.187,1.051-38.3,2.535-11.7,3.137-14.484,7.827-26.973,15.49-37.8,56.5-63.179,107.777-61.7" transform="translate(-873.987 -888.315)" fill="#cb0c57"/>
        <path id="패스_28025" data-name="패스 28025" d="M984.173,916.132c-51.275-1.476-92.286,23.906-107.777,61.7l2.249-5.161c5.316-10.473,6.71-13.069,14.427-24.049,6.809-8.391,8.036-9.9,15.318-16.954,7.68-6.707,8.481-7.41,14.619-11.753,8.04-5.234,8.355-5.439,13.536-8.2,3.169-1.566,7.426-3.586,10.66-5.009,9.72-4.049,22.393-1.284,36.967,9.417" transform="translate(-866.602 -896.725)" fill="#e55ab3"/>
        <path id="패스_28026" data-name="패스 28026" d="M930.679,922.337c-14.574-10.7-27.247-13.466-36.967-9.418l.229-.094a124.65,124.65,0,0,1,11.745-4.224c7.2-2.041,7.2-2.041,10.857-2.826,6.935-1.341,6.935-1.341,10.423-1.795,6.9-.761,6.9-.761,10.371-.937,3.169-.094,7.393-.135,10.563-.1-5.688-.172-11.638,6.077-17.22,19.4" transform="translate(-813.108 -902.93)" fill="#cb0c57"/>
        <path id="패스_28027" data-name="패스 28027" d="M902.752,922.331c5.582-13.319,11.532-19.567,17.22-19.4l.114,0c7.214.38,7.5.393,11.364.851a124.5,124.5,0,0,1,12.5,2.1,129.009,129.009,0,0,1,14.2,3.95c8.947,3.341,10.1,3.77,16.525,6.923,9.119,4.965,11.016,6,19.224,11.826l.028.02c-23.243-17.212-56.3-20.72-91.174-6.281" transform="translate(-785.181 -902.924)" fill="#e55ab3"/>
        <path id="패스_28028" data-name="패스 28028" d="M902.752,914.483c34.877-14.439,67.931-10.931,91.174,6.281,8.763,6.984,10.845,8.645,19.142,17.314,7.7,9.156,9.087,10.8,14.8,19.8,6.048,10.865,6.98,12.537,10.689,21.98,2.491,7.54,5.9,17.87,7.406,30.5.834,8.972.867,9.324.924,14.591a130.1,130.1,0,0,1-6.772,42.532c-1.031,2.838-2.425,6.616-3.566,9.409a91.58,91.58,0,0,0,6.343-46.92c-7.336-61.539-70.094-113.24-140.143-115.485" transform="translate(-785.181 -895.076)" fill="#cb0c57"/>
        <path id="패스_28029" data-name="패스 28029" d="M902.752,907.676c70.049,2.245,132.807,53.945,140.143,115.485a91.58,91.58,0,0,1-6.343,46.92l-1.807,4.065a130.733,130.733,0,0,1-15.572,25.447,134.973,134.973,0,0,1-10.481,11.867,139.051,139.051,0,0,1-12.791,11.262,147,147,0,0,1-16.394,10.775,141.7,141.7,0,0,1-13.466,6.494l-.245.1a21.661,21.661,0,0,0,2.642-1.3c14.006-8.1,20.786-32.215,16.488-68.278-7.336-61.539-44.131-134.447-82.174-162.835" transform="translate(-785.181 -888.269)" fill="#e55ab3"/>
        <path id="패스_28030" data-name="패스 28030" d="M917.115,907.676c38.042,28.387,74.838,101.3,82.174,162.835,4.3,36.063-2.482,60.177-16.488,68.278a21.68,21.68,0,0,1-2.642,1.3c-6.9,2.67-7.168,2.776-11.5,4.126-6.9,1.959-7.034,2-10.857,2.826-6.91,1.333-6.91,1.333-10.419,1.791-6.895.761-6.895.761-10.371.936-6.853.2-6.984.209-10.677.1l-.307-.008c-32.305-5.329-38.3-168.29-8.915-242.183" transform="translate(-799.544 -888.269)" fill="#cb0c57"/>
        <path id="패스_28031" data-name="패스 28031" d="M879.662,1064.736c-7.336-61.539,36.067-131.858,96.919-157.06C944.9,987.572,956.127,1147,985.5,1149.859c-6.71-.36-7.111-.381-11.057-.843a130.638,130.638,0,0,1-33.029-8.391,143.175,143.175,0,0,1-15.858-7.606,135.61,135.61,0,0,1-13.585-8.816c-17.306-12.808-29.172-33.2-32.3-59.466" transform="translate(-859.011 -888.269)" fill="#e55ab3"/>
        <path id="패스_28032" data-name="패스 28032" d="M925.869,1138.19c-1.807-1.452-4.273-3.324-6.023-4.846-2.318-2.02-5.369-4.772-7.536-6.96a135.4,135.4,0,0,1-12.534-14.521,130.936,130.936,0,0,1-21.6-110.631,136.12,136.12,0,0,1,5.786-17.334c4.559-10.366,5.193-11.569,11.262-21.424a91.658,91.658,0,0,1,7.839-10.812c1.955-2.249,4.461-5.341,6.526-7.491,2.662-2.768,6.322-6.363,9.221-8.886a130.181,130.181,0,0,1,18.459-13.462,175.365,175.365,0,0,1,18.864-9.393,130.128,130.128,0,0,1,33.876-8.616,132.664,132.664,0,0,1,19.653-.765,122.922,122.922,0,0,1,13.172,1.161c2.073.242,4.8.794,6.858,1.145a131.469,131.469,0,0,1,50.176,21.3,131.8,131.8,0,0,1,14.562,11.8,130.622,130.622,0,0,1,38.194,66.839,139.256,139.256,0,0,1,2.744,18.324,129.18,129.18,0,0,1-.224,22.986,131.407,131.407,0,0,1-28.355,69.444,126.905,126.905,0,0,1-18.88,19.064,128.626,128.626,0,0,1-22.5,14.848,132.457,132.457,0,0,1-23,9.336c-4.756,1.386-11.218,2.813-16.083,3.746-3.034.581-7.152.916-10.223,1.292a104.391,104.391,0,0,1-12.346.479c-3.758-.037-8.767-.352-12.509-.716a135.444,135.444,0,0,1-22.364-4.367,131.787,131.787,0,0,1-21.792-8.436c-2.376-1.19-5.545-2.793-7.806-4.192-4.11-2.536-9.475-6.11-13.4-8.915-17.535-13.278-29.508-34.149-32.558-60.758C896.361,1104.04,908.335,1124.912,925.869,1138.19Z" transform="translate(-874.001 -902.825)" fill="none"/>
      </g>
      <g id="그룹_13719" data-name="그룹 13719" transform="translate(55.199 0.779)" opacity="0.7">
        <path id="패스_28033" data-name="패스 28033" d="M962.364,920.1c-2.916.818-4.281.814-5.852-.016-.417-.327-.838-.65-1.255-.969q-1.411-1.067-2.8-2.024a117.293,117.293,0,0,1,16.488-4.384q1.361.944,2.748,1.992,1.46,1.1,2.912,2.3a122.266,122.266,0,0,0-12.244,3.1m10.91,22.724a151.59,151.59,0,0,1,27.885-7.929c10.788-2.04,13.8-3.2,12.938-6.94a109.348,109.348,0,0,0-15.76-14.926,54.086,54.086,0,0,0-15-8.362c-9.871-2.118-18.892-1.546-23.738-1.235a108.712,108.712,0,0,0-30.109,7.111,120.9,120.9,0,0,0-39.347,25.206c-2.323,2.454-2.973,3.427-2.507,4.731a45.22,45.22,0,0,1,12.489,5.774c1.955.27,3.529-.376,6.747-2.756a148.577,148.577,0,0,1,22-15.6q1.368.95,2.756,2a118.71,118.71,0,0,1,17.114,16.21c5.2,2.151,9.97,2.188,24.531-3.28" transform="translate(-887.499 -903.121)" fill="#fff"/>
      </g>
    </g>
    <g id="그룹_13730" data-name="그룹 13730" transform="translate(1489.855 696.001)">
      <path id="패스_28015" data-name="패스 28015" d="M336.63-468.191c7.913-7.467,9.128-8.617,16.473-14.092,9.083-6.1,10.483-7.042,18.829-11.321,10.217-4.595,11.53-5.188,20.176-7.913,10.912-2.852,12.316-3.22,20.924-4.419,11.911-1.076,12.884-1.166,21.19-.953,7.177.254,13.9,7.75,19.386,21.125,6.186,15.11,10.83,37.659,12.8,65.846-21.587-20.72-44.283-36.4-64.921-46.01-28.126-13.069-52.45-14.8-64.856-2.263" transform="translate(-298.657 506.982)" fill="#ffb000"/>
      <path id="패스_28016" data-name="패스 28016" d="M327.634-390.068c-.1-3.388-.327-7.9-.278-11.285.753-13.146.8-13.932,2.23-21.8,2.938-12.819,3.114-13.584,5.921-21.289,5.074-12.16,5.376-12.888,9.521-20.135,7.083-11.158,7.508-11.829,12.864-18.326,2.209-2.463,5.119-5.781,7.43-8.154,12.406-12.537,36.73-10.806,64.856,2.263,20.638,9.607,43.334,25.29,64.921,46.01a384.29,384.29,0,0,0-83.743,6.166c-36.628,6.9-66.533,18.8-78.44,33.019-3.883,4.64-5.573,9.19-5.282,13.531" transform="translate(-327.349 529.848)" fill="#ffd400"/>
      <path id="패스_28018" data-name="패스 28018" d="M423.15-310.881l-.025,0c-13.2-.966-13.449-.982-20.4-2.312-12.533-2.909-12.533-2.909-18.76-5.106-11.571-4.578-11.571-4.578-17.136-7.5-10.581-6.047-10.581-6.047-15.536-9.611-9.554-7.393-9.554-7.393-13.928-11.559l-.123-.118c3.822-9.6,77.928-88.505,127.269-138.607a444.186,444.186,0,0,1-2.328,83.927c-4.664,37.426-13.915,69.062-25.818,83.276-4.46,5.323-8.92,7.766-13.216,7.618" transform="translate(-296.762 572.767)" fill="#ffd400"/>
      <path id="패스_28019" data-name="패스 28019" d="M456.331-350.111c-9.595,9.067-10.172,9.611-16.988,14.615-10.884,7.238-11.534,7.668-18.838,11.326-11.849,5.27-12.557,5.585-20.176,7.913-12.741,3.281-13.24,3.408-20.928,4.419-13.105,1.15-13.617,1.19-21.162.957,4.3.147,8.756-2.3,13.216-7.618,11.9-14.214,21.154-45.851,25.818-83.276A444.2,444.2,0,0,0,399.6-485.7c21.681,20.626,38.793,42.986,50.032,63.837,15.892,29.541,19.926,56.08,8.02,70.294-.426.507-.863.994-1.322,1.461" transform="translate(-231.85 572.767)" fill="#ffb000"/>
      <path id="패스_28020" data-name="패스 28020" d="M462.2-451.268l.029.372c.119,3.486.331,8.13.3,11.616-.6,11.416-.679,12.88-2.23,21.8-2.414,10.769-2.782,12.426-5.916,21.284-4.178,10.159-4.82,11.718-9.517,20.131-5.708,9.092-6.735,10.732-12.86,18.318-2.079,2.291-4.763,5.43-6.923,7.639.458-.467.9-.953,1.322-1.461,11.907-14.214,7.872-40.752-8.02-70.294-11.24-20.851-28.351-43.211-50.032-63.837,28.662.929,52.193,5.168,68.571,11.51,15.581,6.051,24.636,14.026,25.278,22.925" transform="translate(-200.597 572.767)" fill="#ffd400"/>
      <path id="패스_28021" data-name="패스 28021" d="M421.621-498.18l.307.291c8.457,8.633,8.457,8.633,12.258,13.416,7.1,9.6,7.238,9.783,10.454,15.254,5.638,10.434,5.859,10.843,8.412,17.115,4.047,11.137,4.288,11.8,6.023,19.014,2.3,11.624,2.484,12.573,3.122,20.511-.642-8.9-9.7-16.874-25.278-22.925-16.379-6.342-39.909-10.581-68.571-11.51,18.8-19.292,33.265-33.653,42.381-42.209,6.673-6.26,10.45-9.378,10.892-8.956" transform="translate(-200.597 534.078)" fill="#ffb000"/>
      <path id="패스_28022" data-name="패스 28022" d="M379.868-485.834c-5.491-13.375-12.209-20.871-19.386-21.125,12.471.888,12.958.921,20.4,2.312,12.038,2.782,12.267,2.836,18.764,5.111,11.461,4.525,11.461,4.525,17.136,7.5,10.552,6.031,10.552,6.031,15.536,9.615,4.194,3.245,9.652,7.75,13.621,11.268-.442-.421-4.218,2.7-10.892,8.956-9.116,8.556-23.58,22.917-42.381,42.209-1.968-28.187-6.612-50.736-12.8-65.846" transform="translate(-224.916 507.052)" fill="#ffd400"/>
      <path id="패스_28017" data-name="패스 28017" d="M367.639-346.9c-3.777-3.862-8.633-9.186-12.136-13.3-7.16-9.685-7.3-9.873-10.454-15.253-5.851-10.859-5.965-11.068-8.412-17.115-4.255-11.78-4.419-12.238-6.023-19.009-2.5-12.848-2.594-13.347-3.146-20.888l-.024-.327c-.291-4.341,1.4-8.891,5.282-13.531,11.907-14.214,41.812-26.121,78.44-33.019a384.289,384.289,0,0,1,83.743-6.166C432.544-422.151,367.123-350.9,367.639-346.9" transform="translate(-327.158 572.573)" fill="#ffb000"/>
      <path id="패스_28023" data-name="패스 28023" d="M399.542-458.091q-1.08-8.445-2.484-16.235c1.616.086,3.232.188,4.84.3q2.547.178,5.045.389,1.1,5.831,2,12.029c.323,2.7-.356,3.858-2.344,3.981-.72-.053-1.444-.106-2.168-.156q-2.437-.172-4.885-.307m23.433-37.381q-12.52-2.081-26.89-3.1c-9.566-.667-19.3-.921-29.079-.794-5.466,1.907-6.935,6.538-5.421,17.087q2.136,13.379,3.916,28.915c1.731,15.241,3.044,30.941,3.961,46.673.712,4.529,2.443,5.413,4.3,5.982,8.4-.209,16.776-.139,25.053.225,1.727-.52,3.453-1.4,3.9-5.9,0-8.891-.266-17.77-.81-26.563q2.43.135,4.848.3,15.012,1.043,28.126,3.245c3.224-.937,7.332-3.981,5.822-19.525a205.472,205.472,0,0,0-5.245-28.22c-4.145-14.681-10.6-17.741-12.479-18.33" transform="translate(-223.241 530.438)" fill="#fff" opacity="0.7"/>
    </g>
  </g>
</svg>
