<svg xmlns="http://www.w3.org/2000/svg" xmlns:xlink="http://www.w3.org/1999/xlink" width="246.4" height="514" viewBox="0 0 246.4 514">
  <defs>
    <clipPath id="clip-path">
      <rect id="사각형_33035" data-name="사각형 33035" width="246.4" height="514" rx="16" transform="translate(4054 -727)" fill="none"/>
    </clipPath>
    <linearGradient id="linear-gradient" x1="0.5" y1="0.958" x2="0.5" gradientUnits="objectBoundingBox">
      <stop offset="0" stop-color="#ffd400"/>
      <stop offset="1" stop-color="#ffb000"/>
    </linearGradient>
  </defs>
  <g id="그룹_13824" data-name="그룹 13824" transform="translate(-6993 -1447)">
    <g id="마스크_그룹_54" data-name="마스크 그룹 54" transform="translate(2939 2174)" clip-path="url(#clip-path)">
      <path id="패스_28092" data-name="패스 28092" d="M9414.582-260.6s22.812-36.726,80.88-16.153,50.68-19.351,101.385-21.578,64.134,46.551,64.134,46.551V-477.139h-246.4" transform="translate(-5360.581 -249.861)" fill="url(#linear-gradient)"/>
    </g>
    <g id="그룹_13781" data-name="그룹 13781" transform="translate(6713.65 2184.542)">
      <path id="패스_27886" data-name="패스 27886" d="M336.63-484.708a78.447,78.447,0,0,1,9.459-8.091,78.146,78.146,0,0,1,10.812-6.5,76.735,76.735,0,0,1,11.585-4.544,76.2,76.2,0,0,1,12.015-2.537,75.369,75.369,0,0,1,12.168-.547c4.121.146,7.979,4.45,11.132,12.13,3.552,8.676,6.219,21.624,7.349,37.809-12.4-11.9-25.428-20.9-37.278-26.419-16.15-7.5-30.117-8.5-37.24-1.3" transform="translate(12.523 0)" fill="#ffb000"/>
      <path id="패스_27887" data-name="패스 27887" d="M327.513-436.7c-.056-1.945-.188-4.537-.16-6.48.432-7.549.458-8,1.28-12.518,1.687-7.361,1.788-7.8,3.4-12.224,2.913-6.982,3.087-7.4,5.467-11.561,4.067-6.407,4.311-6.792,7.387-10.523,1.269-1.414,2.939-3.32,4.267-4.682,7.123-7.2,21.091-6.2,37.24,1.3,11.85,5.516,24.883,14.522,37.278,26.419a220.66,220.66,0,0,0-48.085,3.541c-21.032,3.961-38.2,10.8-45.04,18.96-2.23,2.664-3.2,5.277-3.033,7.77" transform="translate(0 9.981)" fill="#ffd400"/>
      <path id="패스_27888" data-name="패스 27888" d="M350.51-406.03c-2.169-2.218-4.957-5.274-6.968-7.636-4.111-5.561-4.189-5.669-6-8.758-3.36-6.235-3.425-6.355-4.83-9.828-2.443-6.764-2.537-7.027-3.458-10.915-1.433-7.377-1.49-7.664-1.807-11.994l-.014-.188c-.167-2.493.8-5.105,3.033-7.77,6.837-8.162,24.009-15,45.04-18.96a220.66,220.66,0,0,1,48.085-3.541c-35.81,36.381-73.374,77.291-73.078,79.589" transform="translate(0.083 28.629)" fill="#ffb000"/>
      <path id="패스_27889" data-name="패스 27889" d="M386.571-385.32l-.014,0c-7.577-.555-7.722-.564-11.714-1.327-7.2-1.67-7.2-1.67-10.772-2.932-6.644-2.629-6.644-2.629-9.839-4.309-6.076-3.472-6.076-3.472-8.921-5.519-5.486-4.245-5.486-4.245-8-6.637l-.07-.068c2.194-5.514,44.747-50.82,73.078-79.589a255.057,255.057,0,0,1-1.337,48.191c-2.678,21.49-7.99,39.656-14.825,47.818-2.561,3.057-5.122,4.459-7.589,4.374" transform="translate(13.351 28.714)" fill="#ffd400"/>
      <path id="패스_27890" data-name="패스 27890" d="M414.564-407.846c-5.509,5.206-5.841,5.519-9.755,8.392-6.249,4.156-6.623,4.4-10.817,6.5-6.8,3.026-7.21,3.207-11.585,4.544-7.316,1.884-7.6,1.957-12.017,2.537-7.525.66-7.819.684-12.151.55,2.467.085,5.028-1.318,7.589-4.374,6.834-8.162,12.146-26.328,14.825-47.818a255.06,255.06,0,0,0,1.337-48.191c12.45,11.843,22.275,24.683,28.729,36.655,9.125,16.963,11.442,32.2,4.6,40.363-.244.291-.5.571-.759.839" transform="translate(41.683 28.714)" fill="#ffb000"/>
      <path id="패스_27891" data-name="패스 27891" d="M422.236-465.93l.016.214c.068,2,.19,4.668.171,6.67a76.262,76.262,0,0,1-1.28,12.515,77.365,77.365,0,0,1-3.4,12.222,77.976,77.976,0,0,1-5.465,11.559,79.493,79.493,0,0,1-7.384,10.518c-1.193,1.316-2.735,3.118-3.975,4.386.263-.268.514-.547.759-.839,6.837-8.162,4.52-23.4-4.6-40.363C390.623-461.02,380.8-473.86,368.348-485.7c16.458.533,29.969,2.967,39.374,6.609,8.947,3.475,14.146,8.054,14.515,13.164" transform="translate(55.324 28.714)" fill="#ffd400"/>
      <path id="패스_27892" data-name="패스 27892" d="M398.937-498.2l.176.167c4.856,4.957,4.856,4.957,7.039,7.7,4.076,5.512,4.156,5.617,6,8.759,3.238,5.991,3.364,6.226,4.83,9.828,2.324,6.4,2.462,6.778,3.458,10.918a74.64,74.64,0,0,1,1.793,11.777c-.369-5.11-5.568-9.689-14.515-13.164-9.4-3.642-22.916-6.076-39.374-6.609,10.8-11.077,19.1-19.324,24.335-24.237,3.832-3.595,6-5.385,6.254-5.143" transform="translate(55.324 11.827)" fill="#ffb000"/>
      <path id="패스_27893" data-name="패스 27893" d="M371.613-494.829c-3.153-7.68-7.011-11.984-11.132-12.13,7.161.51,7.441.529,11.714,1.327,6.912,1.6,7.044,1.628,10.774,2.934,6.581,2.6,6.581,2.6,9.839,4.306,6.059,3.463,6.059,3.463,8.921,5.521,2.408,1.863,5.542,4.45,7.821,6.47-.254-.242-2.422,1.548-6.254,5.143-5.234,4.913-13.54,13.159-24.335,24.237-1.13-16.185-3.8-29.133-7.349-37.809" transform="translate(44.709 0.031)" fill="#ffd400"/>
      <path id="패스_27894" data-name="패스 27894" d="M383.141-475.678q-.62-4.849-1.426-9.322c.928.049,1.856.108,2.779.171q1.462.1,2.9.223.631,3.348,1.146,6.907c.186,1.553-.2,2.216-1.346,2.286-.413-.031-.829-.061-1.245-.089q-1.4-.1-2.805-.176M396.6-497.142q-7.189-1.195-15.44-1.779c-5.493-.383-11.08-.529-16.7-.456-3.139,1.095-3.982,3.754-3.113,9.811q1.226,7.683,2.248,16.6c.994,8.752,1.748,17.766,2.274,26.8.409,2.6,1.4,3.108,2.469,3.435,4.823-.12,9.633-.08,14.385.129.991-.3,1.983-.8,2.239-3.388,0-5.105-.153-10.2-.465-15.252q1.4.077,2.784.174,8.62.6,16.15,1.863c1.851-.538,4.21-2.286,3.343-11.211a117.984,117.984,0,0,0-3.012-16.2c-2.38-8.43-6.087-10.187-7.166-10.525" transform="translate(45.441 10.238)" fill="#fff" opacity="0.7"/>
    </g>
  </g>
</svg>
