<svg xmlns="http://www.w3.org/2000/svg" width="96.003" height="96.003" viewBox="0 0 96.003 96.003">
  <g id="그룹_13830" data-name="그룹 13830" transform="translate(-6990.004 -3286.981)">
    <g id="그룹_13619" data-name="그룹 13619" transform="translate(6990.004 3286.981)">
      <path id="패스_27779" data-name="패스 27779" d="M316.315,330.557a47.843,47.843,0,0,1,13.311,34.023l-18.833-.329-29.161-.51L302.7,343.579l13.611-13.022" transform="translate(-233.63 -315.74)" fill="#e55ab3"/>
      <path id="패스_27780" data-name="패스 27780" d="M282.612,320.688a47.854,47.854,0,0,1,33.7,14.806L302.7,348.517l-21.073,20.162.6-29.16.384-18.832" transform="translate(-233.63 -320.678)" fill="#cb0c57"/>
      <path id="패스_27781" data-name="패스 27781" d="M259.445,334.1a47.845,47.845,0,0,1,34.124-13.409l.143,0-.384,18.832-.6,29.16L272.506,347.67,259.445,334.1" transform="translate(-244.729 -320.681)" fill="#e55ab3"/>
      <path id="패스_27782" data-name="패스 27782" d="M249.641,363.382v-.01a47.852,47.852,0,0,1,14.709-33.747L277.411,343.2l20.224,21.013-29.161-.5-18.833-.324" transform="translate(-249.634 -316.207)" fill="#cb0c57"/>
      <path id="패스_27783" data-name="패스 27783" d="M263.152,386.34a47.85,47.85,0,0,1-13.509-34.215l18.833.324,29.161.5-20.953,20.287-13.533,13.1" transform="translate(-249.636 -304.95)" fill="#e55ab3"/>
      <path id="패스_27784" data-name="패스 27784" d="M292.455,400.673l-.162,0a47.85,47.85,0,0,1-33.648-14.605l13.533-13.1,20.953-20.287-.411,29.163-.264,18.835" transform="translate(-245.129 -304.674)" fill="#cb0c57"/>
      <path id="패스_27785" data-name="패스 27785" d="M315.347,387.064a47.852,47.852,0,0,1-34.166,13.609l.264-18.835.411-29.163,20.35,20.894,13.141,13.494" transform="translate(-233.855 -304.674)" fill="#e55ab3"/>
      <path id="패스_27786" data-name="패스 27786" d="M310.792,353.186l18.833.329a47.843,47.843,0,0,1-14.5,33.549L301.981,373.57l-20.35-20.894,29.161.51" transform="translate(-233.63 -304.674)" fill="#cb0c57"/>
    </g>
    <path id="패스_27787" data-name="패스 27787" d="M257.513,352.845c1.427-8.331,6.985-15.9,14.173-20.327a26.9,26.9,0,0,1,7.752-3.3,2.012,2.012,0,0,1,1.5,3.691,67.76,67.76,0,0,0-6.09,4.186,46.05,46.05,0,0,0-9.83,10.58,63.775,63.775,0,0,0-3.733,6.429,2.017,2.017,0,0,1-3.77-1.256Z" transform="translate(6744.291 2970.54)" fill="#fff" opacity="0.7"/>
  </g>
</svg>
