<svg xmlns="http://www.w3.org/2000/svg" xmlns:xlink="http://www.w3.org/1999/xlink" width="95.996" height="95.996" viewBox="0 0 95.996 95.996">
  <defs>
    <linearGradient id="linear-gradient" x1="0.1" y1="0.206" x2="0.957" y2="0.836" gradientUnits="objectBoundingBox">
      <stop offset="0" stop-color="#b67fef"/>
      <stop offset="0.493" stop-color="#5e70da"/>
      <stop offset="1" stop-color="#0060c4"/>
    </linearGradient>
  </defs>
  <g id="그룹_13737" data-name="그룹 13737" transform="translate(-191.05 124.238)">
    <g id="그룹_13735" data-name="그룹 13735" transform="translate(191.05 -124.238)">
      <circle id="타원_9" data-name="타원 9" cx="47.99" cy="47.99" r="47.99" transform="translate(0.015 0.008)" fill="url(#linear-gradient)"/>
      <g id="그룹_13734" data-name="그룹 13734" style="mix-blend-mode: multiply;isolation: isolate">
        <path id="패스_28061" data-name="패스 28061" d="M257.726-114.362a47.841,47.841,0,0,1,13.309,34.021L252.2-80.67l-29.159-.51,21.071-20.161,13.61-13.021" transform="translate(-175.048 129.177)" fill="#29a4ff" opacity="0.1"/>
        <path id="패스_28062" data-name="패스 28062" d="M224.026-124.231a47.857,47.857,0,0,1,33.7,14.805L244.116-96.4,223.045-76.244l.6-29.156.384-18.832" transform="translate(-175.048 124.241)" fill="#29a4ff" opacity="0.6"/>
        <path id="패스_28063" data-name="패스 28063" d="M200.859-110.822a47.847,47.847,0,0,1,34.121-13.408l.143,0-.384,18.832-.6,29.156L213.919-97.252l-13.06-13.57" transform="translate(-186.144 124.238)" fill="#29a4ff" opacity="0.1"/>
        <path id="패스_28064" data-name="패스 28064" d="M191.055-81.54v-.01a47.85,47.85,0,0,1,14.708-33.745l13.06,13.57,20.222,21.011-29.159-.5-18.832-.324" transform="translate(-191.048 128.711)" fill="#29a4ff" opacity="0.6"/>
        <path id="패스_28065" data-name="패스 28065" d="M204.565-58.58a47.853,47.853,0,0,1-13.507-34.214l18.832.324,29.159.5L218.1-71.681l-13.531,13.1" transform="translate(-191.05 139.965)" fill="#29a4ff" opacity="0.1"/>
        <path id="패스_28066" data-name="패스 28066" d="M233.867-44.25l-.162,0a47.839,47.839,0,0,1-33.646-14.6l13.531-13.1,20.951-20.287-.411,29.16-.264,18.833" transform="translate(-186.544 140.241)" fill="#29a4ff" opacity="0.6"/>
        <path id="패스_28067" data-name="패스 28067" d="M256.758-57.858A47.848,47.848,0,0,1,222.595-44.25l.264-18.833.411-29.16L243.618-71.35l13.14,13.492" transform="translate(-175.273 140.241)" fill="#29a4ff" opacity="0.1"/>
        <path id="패스_28068" data-name="패스 28068" d="M252.2-91.733l18.832.329a47.839,47.839,0,0,1-14.5,33.547L243.393-71.35,223.045-92.243l29.159.51" transform="translate(-175.048 140.241)" fill="#29a4ff" opacity="0.6"/>
      </g>
      <path id="패스_28069" data-name="패스 28069" d="M198.937-92.076c1.427-8.33,6.985-15.9,14.171-20.326a26.926,26.926,0,0,1,7.753-3.3,2.014,2.014,0,0,1,2.435,1.472,2.017,2.017,0,0,1-.938,2.219,67.529,67.529,0,0,0-6.089,4.185,46.044,46.044,0,0,0-9.829,10.579,63.95,63.95,0,0,0-3.732,6.428,2.017,2.017,0,0,1-3.77-1.256Z" transform="translate(-187.123 128.477)" fill="#fff" opacity="0.7"/>
    </g>
    <path id="패스_28070" data-name="패스 28070" d="M244.972-95.077q-.286,6.739-2.112,8.623L235.608-83.2v.914q-.171,2.171-1.713,2.513H222.932q-1.541-.342-1.712-2.513v-2.169a4.485,4.485,0,0,1,1.085-3.483l7.594-3.426a2.129,2.129,0,0,0,.686-1.884v-1.827h-4.112v1.827q-.171,2.171-1.713,2.513H213.8q-1.541-.342-1.712-2.513v-5.366q0-7.595,3.654-8.794h25.579q3.654,1.2,3.654,8.794Zm-21.241,31.52q-1.541-.344-1.713-2.513v-7.423q.171-2.169,1.713-2.513H233.1q1.544.342,1.713,2.513v7.423q-.171,2.171-1.713,2.513Z" transform="translate(10.52 8.417)" fill="#fff" opacity="0.7"/>
  </g>
</svg>
