<svg xmlns="http://www.w3.org/2000/svg" width="96.004" height="96.005" viewBox="0 0 96.004 96.005">
  <g id="그룹_13832" data-name="그룹 13832" transform="translate(-6989.998 -2950.999)">
    <g id="그룹_13588" data-name="그룹 13588" transform="translate(6989.998 2950.999)">
      <path id="패스_27752" data-name="패스 27752" d="M316.315,88.753a47.843,47.843,0,0,1,13.311,34.024l-18.833-.329-29.161-.51L302.7,101.776l13.611-13.023" transform="translate(-233.629 -73.936)" fill="#ffb000"/>
      <path id="패스_27753" data-name="패스 27753" d="M282.612,78.884a47.855,47.855,0,0,1,33.7,14.807L302.7,106.713l-21.073,20.163.6-29.16.384-18.832" transform="translate(-233.629 -78.874)" fill="#ffd400"/>
      <path id="패스_27754" data-name="패스 27754" d="M259.445,92.294a47.845,47.845,0,0,1,34.124-13.41l.143,0-.384,18.832-.6,29.16-20.224-21.013L259.445,92.294" transform="translate(-244.729 -78.877)" fill="#ffb000"/>
      <path id="패스_27755" data-name="패스 27755" d="M249.641,121.578v-.01A47.852,47.852,0,0,1,264.35,87.82l13.062,13.572,20.224,21.013-29.161-.5-18.833-.324" transform="translate(-249.634 -74.403)" fill="#ffd400"/>
      <path id="패스_27756" data-name="패스 27756" d="M263.152,144.537a47.851,47.851,0,0,1-13.509-34.216l18.833.324,29.161.5-20.953,20.287-13.533,13.1" transform="translate(-249.636 -63.145)" fill="#ffb000"/>
      <path id="패스_27757" data-name="패스 27757" d="M292.456,158.87l-.162,0a47.851,47.851,0,0,1-33.649-14.605l13.533-13.1,20.953-20.287-.411,29.163-.264,18.835" transform="translate(-245.129 -62.87)" fill="#ffd400"/>
      <path id="패스_27758" data-name="패스 27758" d="M315.347,145.26a47.852,47.852,0,0,1-34.166,13.609l.264-18.835.411-29.163,20.35,20.895,13.141,13.494" transform="translate(-233.854 -62.87)" fill="#ffb000"/>
      <path id="패스_27759" data-name="패스 27759" d="M310.792,111.382l18.833.329a47.844,47.844,0,0,1-14.5,33.55l-13.141-13.494-20.35-20.895,29.161.51" transform="translate(-233.629 -62.87)" fill="#ffd400"/>
    </g>
    <path id="패스_27760" data-name="패스 27760" d="M257.513,111.041c1.427-8.331,6.985-15.9,14.173-20.328a26.9,26.9,0,0,1,7.752-3.3,2.012,2.012,0,0,1,1.5,3.691,67.759,67.759,0,0,0-6.09,4.186,46.05,46.05,0,0,0-9.83,10.58,63.773,63.773,0,0,0-3.733,6.429,2.017,2.017,0,0,1-3.77-1.256Z" transform="translate(6744.285 2876.362)" fill="#fff" opacity="0.7"/>
  </g>
</svg>
