<svg xmlns="http://www.w3.org/2000/svg" width="96.003" height="96.002" viewBox="0 0 96.003 96.002">
  <g id="그룹_13831" data-name="그룹 13831" transform="translate(-9365.998 -1801.987)">
    <g id="그룹_13609" data-name="그룹 13609" transform="translate(9365.998 1801.987)">
      <path id="패스_27770" data-name="패스 27770" d="M316.315,249.291a47.845,47.845,0,0,1,13.311,34.024l-18.833-.329-29.161-.509L302.7,262.314l13.611-13.023" transform="translate(-233.629 -234.476)" fill="#7230e5"/>
      <path id="패스_27771" data-name="패스 27771" d="M282.612,239.422a47.861,47.861,0,0,1,33.7,14.806L302.7,267.251l-21.073,20.164.6-29.16.384-18.833" transform="translate(-233.629 -239.413)" fill="#b331eb"/>
      <path id="패스_27772" data-name="패스 27772" d="M259.445,252.832a47.843,47.843,0,0,1,34.124-13.408h.143l-.384,18.833-.6,29.16L272.507,266.4l-13.062-13.572" transform="translate(-244.729 -239.416)" fill="#7230e5"/>
      <path id="패스_27773" data-name="패스 27773" d="M249.641,282.116v-.011a47.854,47.854,0,0,1,14.709-33.748l13.062,13.572,20.224,21.015-29.161-.5-18.833-.324" transform="translate(-249.634 -234.942)" fill="#b331eb"/>
      <path id="패스_27774" data-name="패스 27774" d="M263.152,305.076a47.857,47.857,0,0,1-13.509-34.217l18.833.324,29.161.5-20.953,20.287-13.533,13.1" transform="translate(-249.636 -223.685)" fill="#7230e5"/>
      <path id="패스_27775" data-name="패스 27775" d="M292.456,319.407l-.162,0A47.85,47.85,0,0,1,258.645,304.8l13.533-13.1,20.953-20.287-.411,29.163-.264,18.833" transform="translate(-245.129 -223.409)" fill="#b331eb"/>
      <path id="패스_27776" data-name="패스 27776" d="M315.347,305.8a47.852,47.852,0,0,1-34.166,13.609l.264-18.833.411-29.163,20.35,20.893L315.347,305.8" transform="translate(-233.854 -223.409)" fill="#7230e5"/>
      <path id="패스_27777" data-name="패스 27777" d="M310.792,271.92l18.833.329a47.843,47.843,0,0,1-14.5,33.55L301.981,292.3l-20.35-20.893,29.161.509" transform="translate(-233.629 -223.409)" fill="#b331eb"/>
    </g>
    <path id="패스_27778" data-name="패스 27778" d="M257.513,271.579c1.427-8.331,6.985-15.9,14.173-20.326a26.863,26.863,0,0,1,7.752-3.3,2.012,2.012,0,0,1,1.5,3.691,67.756,67.756,0,0,0-6.09,4.186,46.083,46.083,0,0,0-9.83,10.58,63.946,63.946,0,0,0-3.733,6.429,2.017,2.017,0,0,1-3.77-1.256Z" transform="translate(9120.285 1566.811)" fill="#fff" opacity="0.7"/>
  </g>
</svg>
