<svg xmlns="http://www.w3.org/2000/svg" width="95.996" height="95.996" viewBox="0 0 95.996 95.996">
  <g id="그룹_13833" data-name="그룹 13833" transform="translate(-9366.004 -1689.997)">
    <g id="그룹_13599" data-name="그룹 13599" transform="translate(9366.004 1689.997)">
      <path id="패스_27761" data-name="패스 27761" d="M316.312,168.025a47.842,47.842,0,0,1,13.31,34.021l-18.832-.329-29.159-.509L302.7,181.046l13.609-13.021" transform="translate(-233.633 -153.211)" fill="#29a4ff"/>
      <path id="패스_27762" data-name="패스 27762" d="M282.612,158.157a47.849,47.849,0,0,1,33.7,14.8L302.7,185.982l-21.071,20.162.6-29.157.384-18.83" transform="translate(-233.633 -158.147)" fill="#2949ff"/>
      <path id="패스_27763" data-name="패스 27763" d="M259.445,171.564a47.846,47.846,0,0,1,34.121-13.407l.143,0-.384,18.83-.6,29.157-20.222-21.013-13.06-13.571" transform="translate(-244.73 -158.15)" fill="#29a4ff"/>
      <path id="패스_27764" data-name="패스 27764" d="M249.641,200.847v-.011a47.851,47.851,0,0,1,14.708-33.745l13.06,13.571,20.222,21.013-29.159-.5-18.832-.326" transform="translate(-249.634 -153.678)" fill="#2949ff"/>
      <path id="패스_27765" data-name="패스 27765" d="M263.151,223.807a47.85,47.85,0,0,1-13.508-34.214l18.832.326,29.159.5-20.951,20.285-13.532,13.1" transform="translate(-249.636 -142.423)" fill="#29a4ff"/>
      <path id="패스_27766" data-name="패스 27766" d="M292.453,238.138l-.162,0a47.847,47.847,0,0,1-33.646-14.6l13.532-13.1,20.951-20.285-.411,29.16-.264,18.833" transform="translate(-245.13 -142.147)" fill="#2949ff"/>
      <path id="패스_27767" data-name="패스 27767" d="M315.344,224.529a47.843,47.843,0,0,1-34.163,13.61l.264-18.833.411-29.16L302.2,211.036l13.14,13.493" transform="translate(-233.858 -142.147)" fill="#29a4ff"/>
      <path id="패스_27768" data-name="패스 27768" d="M310.79,190.654l18.832.329a47.839,47.839,0,0,1-14.5,33.547l-13.14-13.493-20.348-20.891,29.159.509" transform="translate(-233.633 -142.147)" fill="#2949ff"/>
    </g>
    <path id="패스_27769" data-name="패스 27769" d="M257.513,190.311c1.427-8.33,6.985-15.9,14.172-20.324a26.858,26.858,0,0,1,7.751-3.3,2.011,2.011,0,0,1,1.5,3.689,68.069,68.069,0,0,0-6.089,4.185,46.077,46.077,0,0,0-9.829,10.579,63.959,63.959,0,0,0-3.732,6.43,2.017,2.017,0,0,1-3.77-1.257Z" transform="translate(9120.29 1536.086)" fill="#fff" opacity="0.7"/>
  </g>
</svg>
