<svg xmlns="http://www.w3.org/2000/svg" width="256" height="256.005" viewBox="0 0 256 256.005">
  <g id="그룹_13738" data-name="그룹 13738" transform="translate(-279.911 -244.505)">
    <path id="패스_28056" data-name="패스 28056" d="M432.185,295.668a10.674,10.674,0,0,0-15.083,0l-21.4,21.408L371.96,293.332l21.4-21.4a10.665,10.665,0,0,0-15.083-15.083l-21.4,21.4-8.48-8.491a10.979,10.979,0,0,0-15.083,0l-18.283,18.283a62.364,62.364,0,0,0-6.773,79.926l-25.227,25.216a10.665,10.665,0,1,0,15.083,15.083l25.227-25.216a62.1,62.1,0,0,0,79.9-6.784l18.283-18.283a10.673,10.673,0,0,0,0-15.082l-10.741-10.742,21.4-21.408A10.674,10.674,0,0,0,432.185,295.668ZM350,351.967A10.667,10.667,0,1,1,360.664,341.3,10.67,10.67,0,0,1,350,351.967Z" transform="translate(0 89.118)" fill="#3b3b3b"/>
    <path id="패스_28057" data-name="패스 28057" d="M431.925,247.633a10.655,10.655,0,0,0-15.083,0l-25.174,25.173a62.336,62.336,0,0,0-79.915,6.784L293.47,297.873a10.662,10.662,0,0,0,0,15.083L366.6,386.077a10.662,10.662,0,0,0,15.083,0l18.283-18.283a62.377,62.377,0,0,0,6.784-79.9l25.174-25.174A10.655,10.655,0,0,0,431.925,247.633Zm-66.966,77.622a10.667,10.667,0,1,1,10.667-10.667A10.664,10.664,0,0,1,364.959,325.255Z" transform="translate(100.858 0)" fill="#3b3b3b"/>
  </g>
</svg>
