<svg xmlns="http://www.w3.org/2000/svg" width="186.196" height="72" viewBox="0 0 186.196 72"><path d="M858.381,1366.315a11.573,11.573,0,0,1-1.068,4.812,15.556,15.556,0,0,1-6.878,7.333,11.262,11.262,0,0,1-4.676,1.338q-.045.819-.069,2.066t-.158,2.611q-.136,1.362-.386,2.723a11.112,11.112,0,0,1-.726,2.452,5.127,5.127,0,0,1-1.226,1.77,2.633,2.633,0,0,1-1.838.681,2.573,2.573,0,0,1-2.021-.839,5.623,5.623,0,0,1-1.135-2.02,11.974,11.974,0,0,1-.521-2.474q-.136-1.294-.182-2.2-.092-1.317-.114-2.588t-.022-2.588v-2.2q0-1.612.022-3.677t.069-4.313q.044-2.248.136-4.178t.2-3.29a4.223,4.223,0,0,1,.3-1.589,2.544,2.544,0,0,1,.272-.2c.15-.106.318-.212.5-.318s.347-.2.5-.3.256-.151.318-.182a27.665,27.665,0,0,1,4.585-2.043,15.1,15.1,0,0,1,4.948-.862,8.455,8.455,0,0,1,3.791.84,9.181,9.181,0,0,1,2.905,2.225,9.7,9.7,0,0,1,1.839,3.223A11.557,11.557,0,0,1,858.381,1366.315Zm-7.854,1.044a2.917,2.917,0,0,0-.431-1.589,1.564,1.564,0,0,0-1.43-.681,4.667,4.667,0,0,0-1.725.34q-.862.341-1.589.7.136,1.589.249,3.087a23.257,23.257,0,0,1,.023,3.087q.726-.361,1.589-.839a10.843,10.843,0,0,0,1.589-1.067,6.048,6.048,0,0,0,1.226-1.339A3,3,0,0,0,850.526,1367.359Z" transform="translate(-837.362 -1356.146)" fill="#0060c4"/><path d="M882,1374.713q0,1.863-.182,3.836a26.511,26.511,0,0,1-.635,3.835,17.92,17.92,0,0,1-1.249,3.518,10.681,10.681,0,0,1-2.019,2.905,8.935,8.935,0,0,1-2.951,1.975,10.376,10.376,0,0,1-4.041.726,10.87,10.87,0,0,1-5.923-1.588,14.133,14.133,0,0,1-4.2-4.063,18.052,18.052,0,0,1-2.5-5.539,23.449,23.449,0,0,1-.817-6.061v-.59a2.485,2.485,0,0,1,.045-.5q.044-.953.158-2.587t.386-3.5q.272-1.862.7-3.813a17.559,17.559,0,0,1,1.135-3.5,8.6,8.6,0,0,1,1.7-2.543,3.23,3.23,0,0,1,2.36-1,2.479,2.479,0,0,1,1.68.59,4.6,4.6,0,0,1,1.112,1.475,7.294,7.294,0,0,1,.612,1.861,9.862,9.862,0,0,1,.182,1.794,12.656,12.656,0,0,1-.249,2.474q-.251,1.25-.477,2.474-.363,1.952-.59,3.9a34.575,34.575,0,0,0-.227,4q0,1.044.114,2.542a12.118,12.118,0,0,0,.567,2.883,6.826,6.826,0,0,0,1.294,2.361,3.153,3.153,0,0,0,4.54.023,6.14,6.14,0,0,0,1.249-2.27,12.643,12.643,0,0,0,.522-2.771q.113-1.451.114-2.5a35.264,35.264,0,0,0-.5-5.924,56.984,56.984,0,0,0-1.316-5.834q-.229-.772-.386-1.544a7.632,7.632,0,0,1-.159-1.543,3.5,3.5,0,0,1,.75-2.225,2.529,2.529,0,0,1,2.111-.954,3.09,3.09,0,0,1,2.11.886,8.618,8.618,0,0,1,1.748,2.315,18.9,18.9,0,0,1,1.339,3.2q.568,1.77.976,3.517a33.443,33.443,0,0,1,.612,3.337q.2,1.589.25,2.588c.029.3.045.6.045.886Z" transform="translate(-837.185 -1356.146)" fill="#ffb000"/><path d="M914.192,1385.693a23.469,23.469,0,0,1-.385,2.315,12.269,12.269,0,0,1-.613,2.02,3.906,3.906,0,0,1-.93,1.408,1.866,1.866,0,0,1-1.294.521q-.726,0-1.316-1.113a15.307,15.307,0,0,1-1.112-2.951q-.524-1.838-.953-4.153t-.772-4.7q-.34-2.383-.568-4.654t-.363-3.949q-.272,1.725-.635,3.858t-.863,4.336q-.5,2.2-1.09,4.313a34.088,34.088,0,0,1-1.271,3.768,11.57,11.57,0,0,1-1.453,2.656,2.131,2.131,0,0,1-1.634,1,2.068,2.068,0,0,1-1.543-1.044,13.606,13.606,0,0,1-1.5-2.747,37.053,37.053,0,0,1-1.362-3.79q-.637-2.089-1.181-4.2t-.953-4q-.409-1.884-.635-3.155,0,.954-.022,2.111t-.023,1.656c0,.151-.007.652-.022,1.5s-.068,1.861-.159,3.041-.227,2.444-.409,3.792a24.094,24.094,0,0,1-.794,3.745,11.293,11.293,0,0,1-1.294,2.905,2.5,2.5,0,0,1-1.907,1.271,3.49,3.49,0,0,1-1.52-1.385,9.676,9.676,0,0,1-1.022-2.292,19.177,19.177,0,0,1-.635-2.815q-.227-1.5-.363-2.928t-.158-2.656c-.016-.817-.023-1.482-.023-2q0-1.362.159-3.427t.521-4.335q.363-2.27.953-4.54a23.45,23.45,0,0,1,1.43-4.063,10.453,10.453,0,0,1,1.952-2.927,3.488,3.488,0,0,1,2.564-1.136,2.164,2.164,0,0,1,1.453.773,11.19,11.19,0,0,1,1.545,2.02,28.4,28.4,0,0,1,1.5,2.792q.725,1.544,1.384,3.109t1.158,3q.5,1.432.817,2.429.362-1.089.908-2.542t1.2-3.019q.658-1.566,1.452-3.087a22.881,22.881,0,0,1,1.657-2.723,10.729,10.729,0,0,1,1.748-1.952,2.772,2.772,0,0,1,1.793-.749,3.646,3.646,0,0,1,2.724,1.181,9.632,9.632,0,0,1,1.907,3.064,22.438,22.438,0,0,1,1.225,4.222q.454,2.339.7,4.631t.318,4.289q.068,2,.068,3.223v1.362q0,.864-.022,1.953t-.114,2.315Q914.328,1384.467,914.192,1385.693Z" transform="translate(-836.958 -1356.139)" fill="#ff0068"/><path d="M936.931,1366.315a11.574,11.574,0,0,1-1.067,4.812,15.543,15.543,0,0,1-6.878,7.333,11.262,11.262,0,0,1-4.676,1.338q-.045.819-.068,2.066t-.159,2.611q-.136,1.362-.385,2.723a11.158,11.158,0,0,1-.726,2.452,5.133,5.133,0,0,1-1.226,1.77,2.636,2.636,0,0,1-1.839.681,2.574,2.574,0,0,1-2.02-.839,5.623,5.623,0,0,1-1.135-2.02,11.966,11.966,0,0,1-.522-2.474q-.136-1.294-.181-2.2-.092-1.317-.114-2.588t-.022-2.588v-2.2q0-1.612.022-3.677T916,1369.2q.044-2.248.136-4.178t.2-3.29a4.222,4.222,0,0,1,.3-1.589,2.55,2.55,0,0,1,.272-.2c.151-.106.318-.212.5-.318s.347-.2.5-.3.256-.151.318-.182a27.747,27.747,0,0,1,4.585-2.043,15.1,15.1,0,0,1,4.948-.862,8.458,8.458,0,0,1,3.791.84,9.184,9.184,0,0,1,2.905,2.225,9.69,9.69,0,0,1,1.839,3.223A11.547,11.547,0,0,1,936.931,1366.315Zm-7.854,1.044a2.906,2.906,0,0,0-.431-1.589,1.564,1.564,0,0,0-1.43-.681,4.666,4.666,0,0,0-1.725.34q-.863.341-1.589.7.136,1.589.25,3.087a23.469,23.469,0,0,1,.022,3.087q.726-.361,1.589-.839a10.844,10.844,0,0,0,1.589-1.067,6.045,6.045,0,0,0,1.226-1.339A3,3,0,0,0,929.076,1367.359Z" transform="translate(-836.673 -1356.146)" fill="#9d4fe8"/><path d="M951.94,1359.817a3.089,3.089,0,0,1-.385,1.544,3.738,3.738,0,0,1-1.022,1.157,6.38,6.38,0,0,1-1.407.8,7.633,7.633,0,0,1-1.5.454q-.091,5.13-.385,9.9t-.931,9.852h.272a6.555,6.555,0,0,1,1.43.158,3.694,3.694,0,0,1,1.271.545,3.058,3.058,0,0,1,.908.953,2.646,2.646,0,0,1,.34,1.385,2.716,2.716,0,0,1-.658,1.816,5.569,5.569,0,0,1-1.725,1.316,12.615,12.615,0,0,1-2.384.908,23.587,23.587,0,0,1-2.633.568q-1.317.2-2.5.294t-1.907.091q-.545,0-1.34-.045a5.97,5.97,0,0,1-1.5-.272,3.26,3.26,0,0,1-1.2-.681,1.575,1.575,0,0,1-.5-1.226,3.677,3.677,0,0,1,.385-1.7,4.838,4.838,0,0,1,1.022-1.339,5.346,5.346,0,0,1,1.429-.953,8.123,8.123,0,0,1,1.612-.545q.316-2.5.59-4.971t.363-5.017q.091-2.587.182-5.106t.182-5.062c-.212.03-.408.053-.59.068s-.348.023-.5.023a7.37,7.37,0,0,1-1.362-.136,4.678,4.678,0,0,1-1.362-.477,3.677,3.677,0,0,1-1.067-.839,1.88,1.88,0,0,1-.431-1.271,3.08,3.08,0,0,1,1.293-2.542,9.542,9.542,0,0,1,3.087-1.543,20.09,20.09,0,0,1,3.655-.75,28.894,28.894,0,0,1,3-.2q.636,0,1.68.091a9.831,9.831,0,0,1,2.066.41,6.019,6.019,0,0,1,1.771.863A1.75,1.75,0,0,1,951.94,1359.817Z" transform="translate(-836.513 -1356.139)" fill="#0060c4"/><path d="M977.224,1371.17q0,1-.091,2.837t-.341,4.041q-.25,2.2-.7,4.494a24.727,24.727,0,0,1-1.18,4.155,10.412,10.412,0,0,1-1.771,3.063,3.2,3.2,0,0,1-2.5,1.2,4.258,4.258,0,0,1-2.5-.795,9.53,9.53,0,0,1-2.042-1.952,15.558,15.558,0,0,1-1.589-2.473q-.681-1.317-1.135-2.406-.953-2.316-1.907-4.563t-1.816-4.563v1.271q0,1.954-.023,3.882a29.579,29.579,0,0,1-.294,3.836q-.093.772-.2,1.792a18.4,18.4,0,0,1-.34,2.021,8.279,8.279,0,0,1-.659,1.861,2.887,2.887,0,0,1-1.157,1.271,2.173,2.173,0,0,1-.75.272q-.341.045-.749.136h-.136a2.443,2.443,0,0,1-1.77-.7,5.744,5.744,0,0,1-1.226-1.816,12.31,12.31,0,0,1-.795-2.5q-.295-1.383-.454-2.724t-.2-2.473c-.031-.756-.045-1.363-.045-1.817q0-1.042.091-3.063t.385-4.472q.3-2.451.772-5.039a28.913,28.913,0,0,1,1.249-4.7,11.9,11.9,0,0,1,1.861-3.45,3.209,3.209,0,0,1,2.542-1.339,3.506,3.506,0,0,1,2.519,1.09,11.905,11.905,0,0,1,1.975,2.587,19.725,19.725,0,0,1,1.452,3.132q.589,1.635,1,2.724.772,2.133,1.5,4.245t1.407,4.29c.029.06.091.227.182.5s.2.576.318.908c.12.363.272.772.454,1.226,0-.392-.008-.673-.022-.839s-.023-.318-.023-.454v-1.522q-.046-1.5-.068-3t-.023-2.95q0-.636.023-1.771t.136-2.429q.112-1.293.34-2.61a11.569,11.569,0,0,1,.659-2.384,5.351,5.351,0,0,1,1.089-1.747,2.15,2.15,0,0,1,1.611-.682,2.6,2.6,0,0,1,1.952.864,6.955,6.955,0,0,1,1.363,2.2,16.029,16.029,0,0,1,.863,3q.316,1.657.5,3.246t.227,2.951Q977.222,1370.4,977.224,1371.17Z" transform="translate(-836.366 -1356.143)" fill="#ffb000"/><path d="M998.7,1379.752a24.052,24.052,0,0,1-1.294,4.245,17.146,17.146,0,0,1-2.27,4.018,11.853,11.853,0,0,1-3.291,2.973,8.221,8.221,0,0,1-4.359,1.158,7.222,7.222,0,0,1-3.268-.726,9.585,9.585,0,0,1-2.633-1.952,12.845,12.845,0,0,1-2.043-2.815,20.416,20.416,0,0,1-1.43-3.292,21.64,21.64,0,0,1-.839-3.381,19.648,19.648,0,0,1-.272-3.133,26.988,26.988,0,0,1,.385-4.38,29.527,29.527,0,0,1,1.158-4.631,25.921,25.921,0,0,1,1.952-4.4,16.885,16.885,0,0,1,2.792-3.723,13.237,13.237,0,0,1,3.632-2.587,10.242,10.242,0,0,1,4.517-.977,7.108,7.108,0,0,1,2.951.614,7.679,7.679,0,0,1,2.361,1.634,7.4,7.4,0,0,1,1.566,2.429,7.816,7.816,0,0,1,.568,2.951v.408q0,.817-.069,2.02a8.787,8.787,0,0,1-.431,2.293,5.213,5.213,0,0,1-1.09,1.884,2.631,2.631,0,0,1-2.043.794,3.515,3.515,0,0,1-2.406-.727,3.078,3.078,0,0,1-.817-2.405c0-.424.014-.847.045-1.271s.045-.847.045-1.271a2.86,2.86,0,0,0-.318-1.476,1.428,1.428,0,0,0-1.316-.521,3.185,3.185,0,0,0-2.044.726,6.661,6.661,0,0,0-1.589,1.906,14.576,14.576,0,0,0-1.18,2.678,27.587,27.587,0,0,0-1.271,5.947q-.136,1.409-.136,2.406,0,.817.091,1.884a9.9,9.9,0,0,0,.386,2.043,4.453,4.453,0,0,0,.885,1.657,1.945,1.945,0,0,0,1.544.681,3.52,3.52,0,0,0,2.634-1.022,5.358,5.358,0,0,0,1.362-2.611,7.021,7.021,0,0,1-1.249-.294,4.053,4.053,0,0,1-1.135-.59,2.99,2.99,0,0,1-.84-.953,3.006,3.006,0,0,1,.635-3.541,6.552,6.552,0,0,1,2.248-1.2,12.121,12.121,0,0,1,2.656-.521q1.362-.114,2.179-.114c.392,0,.968.031,1.725.091a12.609,12.609,0,0,1,2.246.387,6.418,6.418,0,0,1,1.93.839,1.635,1.635,0,0,1,.817,1.407,4.839,4.839,0,0,1-.93,2.974A3.841,3.841,0,0,1,998.7,1379.752Z" transform="translate(-836.137 -1356.146)" fill="#ff0068"/><path d="M878.162,1402a11.6,11.6,0,0,1-1.066,4.813,15.568,15.568,0,0,1-6.878,7.332,11.269,11.269,0,0,1-4.676,1.339q-.047.817-.068,2.066t-.158,2.61q-.136,1.362-.386,2.724a11.1,11.1,0,0,1-.726,2.452,5.127,5.127,0,0,1-1.226,1.771,2.633,2.633,0,0,1-1.838.681,2.573,2.573,0,0,1-2.021-.84,5.6,5.6,0,0,1-1.135-2.019,11.905,11.905,0,0,1-.523-2.475q-.136-1.293-.181-2.2-.091-1.314-.113-2.587t-.023-2.588v-2.2q0-1.61.023-3.677t.068-4.312q.046-2.247.136-4.176t.2-3.291a4.239,4.239,0,0,1,.295-1.59,2.979,2.979,0,0,1,.272-.2q.227-.159.5-.318c.182-.106.348-.2.5-.3s.257-.15.318-.181a27.687,27.687,0,0,1,4.586-2.043,15.071,15.071,0,0,1,4.948-.863,8.459,8.459,0,0,1,3.791.84,9.2,9.2,0,0,1,2.905,2.224,9.693,9.693,0,0,1,1.838,3.223A11.519,11.519,0,0,1,878.162,1402Zm-7.853,1.045a2.908,2.908,0,0,0-.432-1.59,1.561,1.561,0,0,0-1.429-.681,4.674,4.674,0,0,0-1.725.341q-.864.341-1.589.7.136,1.591.249,3.088a23.407,23.407,0,0,1,.023,3.087q.725-.363,1.589-.84a10.92,10.92,0,0,0,1.589-1.066,6.083,6.083,0,0,0,1.226-1.34A3,3,0,0,0,870.309,1403.046Z" transform="translate(-837.189 -1355.832)" fill="#ff0068"/><path d="M901.781,1410.4q0,1.861-.182,3.836a26.6,26.6,0,0,1-.636,3.835,18.032,18.032,0,0,1-1.249,3.519,10.718,10.718,0,0,1-2.021,2.905,8.951,8.951,0,0,1-2.951,1.975,10.373,10.373,0,0,1-4.04.727,10.878,10.878,0,0,1-5.925-1.589,14.125,14.125,0,0,1-4.2-4.063,18.032,18.032,0,0,1-2.5-5.538,23.449,23.449,0,0,1-.817-6.061v-.59a2.48,2.48,0,0,1,.045-.5q.044-.953.158-2.587t.386-3.5q.272-1.861.7-3.814a17.555,17.555,0,0,1,1.135-3.5,8.561,8.561,0,0,1,1.7-2.542,3.226,3.226,0,0,1,2.36-1,2.478,2.478,0,0,1,1.68.59,4.573,4.573,0,0,1,1.111,1.476,7.263,7.263,0,0,1,.614,1.861,9.859,9.859,0,0,1,.182,1.792,12.6,12.6,0,0,1-.25,2.475q-.25,1.248-.476,2.474-.365,1.952-.59,3.9a34.31,34.31,0,0,0-.227,3.994q0,1.044.113,2.542a12.172,12.172,0,0,0,.568,2.884,6.821,6.821,0,0,0,1.294,2.36,3.153,3.153,0,0,0,4.539.022,6.146,6.146,0,0,0,1.248-2.27,12.676,12.676,0,0,0,.523-2.769q.112-1.452.113-2.5a35.226,35.226,0,0,0-.5-5.925,56.979,56.979,0,0,0-1.317-5.833q-.227-.771-.385-1.544a7.549,7.549,0,0,1-.159-1.543,3.5,3.5,0,0,1,.75-2.225,2.53,2.53,0,0,1,2.11-.953,3.093,3.093,0,0,1,2.111.885,8.624,8.624,0,0,1,1.748,2.315,18.885,18.885,0,0,1,1.339,3.2q.567,1.771.977,3.519a33.475,33.475,0,0,1,.612,3.337q.2,1.589.25,2.588c.029.3.045.6.045.885Z" transform="translate(-837.012 -1355.832)" fill="#ffb000"/><path d="M933.974,1421.379a23.275,23.275,0,0,1-.385,2.315,12.36,12.36,0,0,1-.613,2.021,3.887,3.887,0,0,1-.93,1.407,1.866,1.866,0,0,1-1.294.522q-.726,0-1.316-1.113a15.4,15.4,0,0,1-1.113-2.951q-.522-1.838-.953-4.154t-.772-4.7q-.34-2.385-.567-4.654t-.363-3.949q-.272,1.725-.636,3.858t-.862,4.336q-.5,2.2-1.089,4.313a34.352,34.352,0,0,1-1.271,3.768,11.581,11.581,0,0,1-1.453,2.656,2.129,2.129,0,0,1-1.635,1,2.071,2.071,0,0,1-1.543-1.044,13.718,13.718,0,0,1-1.5-2.747,37.44,37.44,0,0,1-1.362-3.791q-.636-2.088-1.18-4.2t-.953-4q-.409-1.884-.636-3.155,0,.953-.022,2.111t-.023,1.657q0,.227-.022,1.5t-.16,3.042q-.136,1.77-.409,3.791a24.073,24.073,0,0,1-.794,3.745,11.281,11.281,0,0,1-1.294,2.906,2.5,2.5,0,0,1-1.907,1.271,3.489,3.489,0,0,1-1.521-1.385,9.685,9.685,0,0,1-1.021-2.292,19.046,19.046,0,0,1-.635-2.815q-.228-1.5-.363-2.927t-.16-2.656q-.023-1.226-.022-2,0-1.362.158-3.428t.523-4.335q.362-2.27.953-4.54a23.492,23.492,0,0,1,1.429-4.062,10.524,10.524,0,0,1,1.952-2.928,3.492,3.492,0,0,1,2.565-1.135,2.162,2.162,0,0,1,1.453.772,11.154,11.154,0,0,1,1.543,2.021,27.9,27.9,0,0,1,1.5,2.792q.726,1.545,1.385,3.11t1.157,3q.5,1.43.817,2.429.363-1.089.908-2.542t1.2-3.019q.658-1.566,1.453-3.087a22.592,22.592,0,0,1,1.657-2.724,10.7,10.7,0,0,1,1.747-1.952,2.773,2.773,0,0,1,1.793-.749,3.645,3.645,0,0,1,2.724,1.18,9.636,9.636,0,0,1,1.907,3.064,22.4,22.4,0,0,1,1.225,4.222q.454,2.338.7,4.63t.318,4.29q.068,2,.067,3.223v1.362q0,.862-.022,1.952t-.114,2.315Q934.11,1420.153,933.974,1421.379Z" transform="translate(-836.784 -1355.826)" fill="#0060c4"/><path d="M956.712,1402a11.589,11.589,0,0,1-1.066,4.813,15.563,15.563,0,0,1-6.878,7.332,11.259,11.259,0,0,1-4.676,1.339q-.045.817-.069,2.066t-.158,2.61q-.136,1.362-.386,2.724a11.11,11.11,0,0,1-.726,2.452,5.127,5.127,0,0,1-1.226,1.771,2.633,2.633,0,0,1-1.838.681,2.573,2.573,0,0,1-2.021-.84,5.615,5.615,0,0,1-1.135-2.019,11.991,11.991,0,0,1-.522-2.475q-.136-1.293-.182-2.2-.092-1.314-.114-2.587t-.022-2.588v-2.2q0-1.61.022-3.677t.069-4.312q.044-2.247.136-4.176t.2-3.291a4.22,4.22,0,0,1,.3-1.59,2.609,2.609,0,0,1,.272-.2c.15-.106.318-.212.5-.318s.347-.2.5-.3.256-.15.318-.181a27.632,27.632,0,0,1,4.585-2.043,15.072,15.072,0,0,1,4.948-.863,8.454,8.454,0,0,1,3.791.84,9.2,9.2,0,0,1,2.905,2.224,9.688,9.688,0,0,1,1.838,3.223A11.519,11.519,0,0,1,956.712,1402Zm-7.853,1.045a2.917,2.917,0,0,0-.431-1.59,1.563,1.563,0,0,0-1.43-.681,4.681,4.681,0,0,0-1.725.341q-.863.341-1.589.7.136,1.591.249,3.088a23.22,23.22,0,0,1,.023,3.087q.725-.363,1.589-.84a10.8,10.8,0,0,0,1.589-1.066,6.039,6.039,0,0,0,1.226-1.34A3,3,0,0,0,948.859,1403.046Z" transform="translate(-836.499 -1355.832)" fill="#9d4fe8"/><path d="M971.721,1395.5a3.082,3.082,0,0,1-.385,1.543,3.749,3.749,0,0,1-1.022,1.158,6.343,6.343,0,0,1-1.407.794,7.568,7.568,0,0,1-1.5.454q-.091,5.132-.386,9.9t-.93,9.851h.272a6.47,6.47,0,0,1,1.429.159,3.7,3.7,0,0,1,1.272.544,3.04,3.04,0,0,1,.908.954,2.644,2.644,0,0,1,.34,1.384,2.71,2.71,0,0,1-.658,1.816,5.534,5.534,0,0,1-1.726,1.317,12.587,12.587,0,0,1-2.383.908,23.657,23.657,0,0,1-2.633.567q-1.318.2-2.5.3t-1.906.091c-.363,0-.81-.016-1.34-.045a6.059,6.059,0,0,1-1.5-.272,3.255,3.255,0,0,1-1.2-.681,1.578,1.578,0,0,1-.5-1.225,3.668,3.668,0,0,1,.386-1.7,4.866,4.866,0,0,1,1.021-1.339,5.417,5.417,0,0,1,1.43-.954,8.241,8.241,0,0,1,1.612-.545q.316-2.5.59-4.97t.363-5.017q.089-2.588.182-5.108t.182-5.062c-.213.031-.409.053-.59.069s-.349.022-.5.022a7.393,7.393,0,0,1-1.362-.136,4.688,4.688,0,0,1-1.363-.476,3.682,3.682,0,0,1-1.066-.84,1.872,1.872,0,0,1-.432-1.271,3.081,3.081,0,0,1,1.294-2.542,9.534,9.534,0,0,1,3.087-1.544,20.056,20.056,0,0,1,3.655-.749,28.768,28.768,0,0,1,3-.2c.424,0,.983.03,1.68.091a9.759,9.759,0,0,1,2.066.409,6.022,6.022,0,0,1,1.77.862A1.751,1.751,0,0,1,971.721,1395.5Z" transform="translate(-836.339 -1355.826)" fill="#ff0068"/><path d="M997,1406.857q0,1-.091,2.837t-.34,4.041q-.251,2.2-.7,4.494a24.517,24.517,0,0,1-1.18,4.153,10.4,10.4,0,0,1-1.771,3.065,3.2,3.2,0,0,1-2.5,1.2,4.263,4.263,0,0,1-2.5-.8,9.546,9.546,0,0,1-2.043-1.952,15.5,15.5,0,0,1-1.589-2.474q-.681-1.314-1.135-2.406-.953-2.315-1.907-4.562t-1.816-4.562v1.271q0,1.952-.023,3.882a29.694,29.694,0,0,1-.295,3.835q-.092.771-.2,1.793a18.3,18.3,0,0,1-.34,2.02,8.24,8.24,0,0,1-.659,1.862,2.888,2.888,0,0,1-1.158,1.271,2.161,2.161,0,0,1-.749.272q-.34.045-.749.136h-.136a2.446,2.446,0,0,1-1.769-.7,5.761,5.761,0,0,1-1.225-1.816,12.312,12.312,0,0,1-.795-2.5q-.3-1.384-.454-2.723t-.2-2.475q-.046-1.135-.045-1.815,0-1.044.091-3.065t.386-4.471q.3-2.451.772-5.04a28.883,28.883,0,0,1,1.249-4.7,11.913,11.913,0,0,1,1.86-3.45,3.211,3.211,0,0,1,2.542-1.34,3.514,3.514,0,0,1,2.52,1.09,11.973,11.973,0,0,1,1.975,2.588,19.815,19.815,0,0,1,1.452,3.132q.589,1.634,1,2.724.77,2.135,1.5,4.245t1.407,4.29c.029.061.091.227.182.5s.2.575.318.908c.12.363.272.772.454,1.226,0-.394-.008-.673-.023-.84s-.022-.318-.022-.454v-1.52q-.046-1.5-.069-3t-.022-2.951q0-.636.022-1.771t.136-2.429q.113-1.294.341-2.611a11.643,11.643,0,0,1,.658-2.383,5.372,5.372,0,0,1,1.09-1.748,2.153,2.153,0,0,1,1.611-.681,2.6,2.6,0,0,1,1.952.862,7.017,7.017,0,0,1,1.362,2.2,15.917,15.917,0,0,1,.863,3q.317,1.657.5,3.245t.227,2.952Q997,1406.086,997,1406.857Z" transform="translate(-836.193 -1355.83)" fill="#ffb000"/><path d="M1018.483,1415.439a24.072,24.072,0,0,1-1.294,4.245,17.091,17.091,0,0,1-2.27,4.017,11.829,11.829,0,0,1-3.292,2.974,8.227,8.227,0,0,1-4.358,1.158,7.218,7.218,0,0,1-3.268-.727,9.616,9.616,0,0,1-2.633-1.952,12.845,12.845,0,0,1-2.043-2.815,20.286,20.286,0,0,1-1.43-3.29,21.524,21.524,0,0,1-.839-3.382,19.644,19.644,0,0,1-.272-3.133,27,27,0,0,1,.385-4.381,29.448,29.448,0,0,1,1.158-4.63,25.815,25.815,0,0,1,1.952-4.4,16.818,16.818,0,0,1,2.791-3.722,13.251,13.251,0,0,1,3.633-2.588,10.242,10.242,0,0,1,4.516-.976,7.113,7.113,0,0,1,2.951.613,7.687,7.687,0,0,1,2.361,1.634,7.416,7.416,0,0,1,1.566,2.428,7.83,7.83,0,0,1,.568,2.951v.408q0,.817-.069,2.021a8.842,8.842,0,0,1-.431,2.293,5.21,5.21,0,0,1-1.089,1.883,2.628,2.628,0,0,1-2.044.795,3.519,3.519,0,0,1-2.406-.726,3.081,3.081,0,0,1-.817-2.406q0-.636.045-1.271c.03-.424.045-.847.045-1.272a2.848,2.848,0,0,0-.318-1.475,1.425,1.425,0,0,0-1.316-.522,3.192,3.192,0,0,0-2.043.726,6.676,6.676,0,0,0-1.589,1.907,14.614,14.614,0,0,0-1.18,2.679,26.641,26.641,0,0,0-.817,3.019,27.013,27.013,0,0,0-.454,2.928q-.136,1.407-.136,2.406,0,.817.091,1.885a9.94,9.94,0,0,0,.385,2.042,4.465,4.465,0,0,0,.886,1.657,1.942,1.942,0,0,0,1.543.681,3.515,3.515,0,0,0,2.633-1.021,5.352,5.352,0,0,0,1.362-2.611,7.121,7.121,0,0,1-1.248-.294,4.051,4.051,0,0,1-1.135-.59,2.961,2.961,0,0,1-.84-.954,3.007,3.007,0,0,1,.635-3.542,6.557,6.557,0,0,1,2.247-1.2,12.177,12.177,0,0,1,2.655-.523q1.362-.113,2.179-.113.591,0,1.726.091a12.85,12.85,0,0,1,2.246.385,6.425,6.425,0,0,1,1.93.84,1.635,1.635,0,0,1,.817,1.407,4.836,4.836,0,0,1-.931,2.974A3.844,3.844,0,0,1,1018.483,1415.439Z" transform="translate(-835.963 -1355.833)" fill="#0060c4"/></svg>