<svg xmlns="http://www.w3.org/2000/svg" width="77.682" height="96" viewBox="0 0 77.682 96"><g transform="translate(35.684 37.314)"><g transform="translate(0 0)"><path d="M926.311,1296.873l-.064,37.62a6.183,6.183,0,0,0,3.087-.822l27.262-15.677a6.171,6.171,0,0,0,3.1-5.341l.054-31.448a6.167,6.167,0,0,0-.822-3.087Z" transform="translate(-926.247 -1278.118)" fill="#0060c4"/></g></g><g transform="translate(31.716 37.304)"><path d="M926.591,1287.363a4.4,4.4,0,0,1-.9-.094,4.846,4.846,0,0,1-.872-.264,4.937,4.937,0,0,1-.794-.426,4.591,4.591,0,0,1-2.053-3.853,4.518,4.518,0,0,1,.094-.91,4.64,4.64,0,0,1,.689-1.658,5.122,5.122,0,0,1,.573-.708,4.668,4.668,0,0,1,4.183-1.25,4.221,4.221,0,0,1,.865.264,4.663,4.663,0,0,1,.8.425,4.97,4.97,0,0,1,.7.572,4.617,4.617,0,0,1,.578.711,4.606,4.606,0,0,1,.684,1.66,4.535,4.535,0,0,1,.091.911,4.652,4.652,0,0,1-2.066,3.846,5.434,5.434,0,0,1-.8.424,4.9,4.9,0,0,1-.865.26A4.437,4.437,0,0,1,926.591,1287.363Z" transform="translate(-921.969 -1278.106)" fill="#ff0068"/></g><path d="M954.739,1247.236a4.651,4.651,0,0,1-3.269-1.363,4.231,4.231,0,0,1-.577-.7,4.831,4.831,0,0,1-.423-.795,4.907,4.907,0,0,1-.261-.872,4.477,4.477,0,0,1-.092-.9,4.63,4.63,0,0,1,5.54-4.527,4.581,4.581,0,0,1,1.665.689,4.593,4.593,0,0,1,2.054,3.854,4.458,4.458,0,0,1-.095.9,4.554,4.554,0,0,1-.689,1.665,4.464,4.464,0,0,1-1.283,1.278,4.6,4.6,0,0,1-1.668.684A4.431,4.431,0,0,1,954.739,1247.236Z" transform="translate(-892.291 -1237.898)" fill="#9d4fe8"/><g transform="translate(5.351 0)"><path d="M898.159,1247.144a4.645,4.645,0,0,1-3.268-1.364,4.121,4.121,0,0,1-.571-.7,4.406,4.406,0,0,1-.423-.8,4.979,4.979,0,0,1-.268-.872,5.067,5.067,0,0,1-.083-.9,4.622,4.622,0,0,1,5.54-4.527,4.987,4.987,0,0,1,.864.264,5.4,5.4,0,0,1,.8.427,5.01,5.01,0,0,1,.7.58,4.68,4.68,0,0,1,1.344,3.273,5.064,5.064,0,0,1-.086.9,5.636,5.636,0,0,1-.263.871,4.441,4.441,0,0,1-.434.794,4.147,4.147,0,0,1-.572.7,4.928,4.928,0,0,1-.7.578,4.737,4.737,0,0,1-.8.423,4.337,4.337,0,0,1-.865.261A4.556,4.556,0,0,1,898.159,1247.144Z" transform="translate(-893.546 -1237.892)" fill="#ffb000"/></g><path d="M925.726,1245.909a8.7,8.7,0,1,0,8.684,8.714A8.709,8.709,0,0,0,925.726,1245.909Z" transform="translate(-889.894 -1238.472)" fill="#ffb000"/><path d="M925.255,1239.255a14.871,14.871,0,1,0,14.846,14.9A14.872,14.872,0,0,0,925.255,1239.255Zm-.046,26.658a11.786,11.786,0,1,1,11.806-11.766A11.8,11.8,0,0,1,925.209,1265.913Z" transform="translate(-889.412 -1237.991)" fill="#ffb000"/><path d="M955.044,1272.82l-15.38-8.915a18.022,18.022,0,0,1-2.593,3.847l15.651,9.072a3.868,3.868,0,0,1,1.924,3.344l-.054,31.448a3.872,3.872,0,0,1-1.935,3.339L925.4,1330.632a3.865,3.865,0,0,1-3.857-.006l-27.208-15.771a3.87,3.87,0,0,1-1.924-3.345l.054-31.447a3.873,3.873,0,0,1,1.935-3.338l15.685-9.02a17.9,17.9,0,0,1-2.581-3.855l-15.411,8.863a8.511,8.511,0,0,0-4.256,7.342l-.054,31.448a8.512,8.512,0,0,0,4.231,7.357l27.208,15.77a8.505,8.505,0,0,0,8.487.014l27.261-15.677a8.514,8.514,0,0,0,4.256-7.343l.054-31.447A8.512,8.512,0,0,0,955.044,1272.82Z" transform="translate(-887.778 -1239.771)" fill="#0060c4"/><g transform="translate(51.949 14.382)"><path d="M966.02,1262.511c-5.952,1.326-11.178,5.636-14.379,10.809a36.446,36.446,0,0,0-3.05,6.271,2.509,2.509,0,0,1-4.725-1.63,35.6,35.6,0,0,1,6.452-14.378,30.761,30.761,0,0,1,12.77-9.819,4.625,4.625,0,1,1,2.932,8.747Z" transform="translate(-943.78 -1253.396)" fill="#9d4fe8"/></g><g transform="translate(0.657 19.179)"><path d="M895.005,1258.981A29.647,29.647,0,0,1,909.547,1287a2.51,2.51,0,0,1-5,.271c-.173-1.089-.261-2.52-.5-3.574a22.046,22.046,0,0,0-12.834-16.269,4.629,4.629,0,0,1,3.79-8.446Z" transform="translate(-888.486 -1258.568)" fill="#ff0068"/></g><g transform="translate(2.314 36.725)"><g transform="translate(14.589 24.474)"><path d="M906,1307.755l1.373.8c.389.185.583-.026.585-.637l.013-2.915-1.953-1.133Z" transform="translate(-906 -1303.866)" fill="#0060c4"/></g><g transform="translate(0)"><path d="M913.41,1311.775c-.012,2.689-.581,3.925-1.709,3.7l-6.865-3.979-.027,5.83c-.058.738-.32,1.034-.8.876l-5.068-2.937a2.409,2.409,0,0,1-.787-1.795l.079-17.308q.018-4.042,1.71-3.7l11.83,6.857q1.687,1.617,1.666,5.654Zm-23.076-34.293-.06,35.01a6.173,6.173,0,0,0,3.077,5.351l27.209,15.77a6.16,6.16,0,0,0,3.084.833l.064-37.621Z" transform="translate(-890.273 -1277.482)" fill="#0060c4"/></g></g></svg>