<svg xmlns="http://www.w3.org/2000/svg" xmlns:xlink="http://www.w3.org/1999/xlink" width="192" height="96" viewBox="0 0 192 96">
  <defs>
    <linearGradient id="linear-gradient" y1="0.5" x2="1" y2="0.5" gradientUnits="objectBoundingBox">
      <stop offset="0" stop-color="#9d4fe8"/>
      <stop offset="0.686" stop-color="#df1991"/>
      <stop offset="1" stop-color="#ff0068"/>
    </linearGradient>
  </defs>
  <g id="그룹_13551" data-name="그룹 13551" transform="translate(-56.298 -425.954)">
    <path id="패스_27338" data-name="패스 27338" d="M56.3,425.954v30a18,18,0,0,1,0,36v30h40v-9h4v9h106v-9h4v9h38V491.836a17.993,17.993,0,0,1,0-35.764V425.954h-38v9h-4v-9m-106,71.4h-4v-15.6h4Zm0-31.2h-4v-15.6h4Zm0-40.2v9h-4v-9m114,71.4h-4v-15.6h4Zm0-31.2h-4v-15.6h4Z" transform="translate(0 0)" fill="url(#linear-gradient)"/>
    <path id="패스_27339" data-name="패스 27339" d="M242.3,450.788V427.954h-34v5h-4v-5H98.3v5h-4v-5h-36v22.364a22,22,0,0,1,0,43.27v22.366h36v-5h4v5h106v-5h4v5h34V493.12a22,22,0,0,1,0-42.332Zm-144,44.566h-4v-15.6h4Zm0-31.2h-4v-15.6h4Zm110,31.2h-4v-15.6h4Zm0-31.2h-4v-15.6h4Z" transform="translate(2 2)" fill="#fff" opacity="0.1" style="mix-blend-mode: overlay;isolation: isolate"/>
    <g id="그룹_13368" data-name="그룹 13368" transform="translate(131.888 446.74)" opacity="0.7">
      <path id="패스_27340" data-name="패스 27340" d="M98.629,436.347h31.75q4.536,1.488,4.536,10.914v15.874q0,9.426-4.536,10.914H111.953v13.608q-.213,2.691-2.126,3.118H96.219q-1.914-.426-2.126-3.118v-40.4Q94.093,437.835,98.629,436.347Zm13.324,15.45v9.07h3.684q1.56-.141,1.56-2.268v-6.8Z" transform="translate(-94.093 -436.347)" fill="#fff" opacity="0.7" style="mix-blend-mode: overlay;isolation: isolate"/>
    </g>
  </g>
</svg>
